<?xml version="1.0" encoding="utf-8"?>
<!-- Generator: Adobe Illustrator 22.0.1, SVG Export Plug-In . SVG Version: 6.00 Build 0)  -->
<svg version="1.1" id="Layer_1" xmlns="http://www.w3.org/2000/svg" xmlns:xlink="http://www.w3.org/1999/xlink" x="0px" y="0px"
	 viewBox="0 0 195 37" style="enable-background:new 0 0 195 37;" xml:space="preserve">
<style type="text/css">
	.st0{fill:#FFFFFF;}
</style>
<g>
	<path class="st0" d="M36.2,30.6v-8.7h8v-5.7h-8V8.1h8.8v3.1h5.8V2.5H27.5v5.7h2.2v22.5h-2.2v5.7h10.7v-5.7L36.2,30.6z M24.5,23.5
		V8.1h2.1V2.5H16v5.7h2.1v13.5c0,5.7-0.6,8.4-4.7,8.4s-4.7-2.8-4.7-8.4V8.1h2.1V2.5H0v5.7h2.1v15.4c0,3.4,0,6.1,1.6,8.6
		c1.8,2.8,5,4.6,9.7,4.6C21.6,36.7,24.5,32.4,24.5,23.5z M56,2.4v33.9h1.5V2.4H56z"/>
	<path class="st0" d="M169,11.2c0.1,0.4,0.4,0.7,0.7,0.9c0.4,0.2,0.9,0.3,1.4,0.3c0.5,0,0.9-0.1,1.3-0.2c0.4-0.2,0.8-0.4,1.2-0.6
		c0.3-0.2,0.7-0.5,0.9-0.8c0.3-0.4,0.6-0.9,0.7-1.5c0.2-0.6,0.3-1.3,0.3-1.9c0-0.3,0-0.6-0.1-0.9c-0.1-0.3-0.2-0.5-0.4-0.7
		c-0.2-0.2-0.5-0.4-0.8-0.5C174,5.1,173.6,5,173.2,5c-0.5,0-1,0.1-1.4,0.3c-0.4,0.2-0.9,0.4-1.2,0.7c-0.3,0.2-0.5,0.4-0.8,0.7
		c-0.3,0.4-0.5,0.9-0.7,1.4c-0.2,0.6-0.3,1.2-0.3,1.9C168.9,10.5,168.9,10.9,169,11.2L169,11.2z M170.9,7.8c0.1-0.6,0.4-1.2,0.7-1.7
		c0.3-0.3,0.6-0.4,1-0.4c0.4,0,0.7,0.1,0.9,0.4c0.3,0.4,0.4,0.8,0.4,1.3c0,0.7-0.1,1.5-0.3,2.2c-0.1,0.4-0.3,0.8-0.5,1.2
		c-0.1,0.3-0.3,0.5-0.6,0.6c-0.2,0.1-0.5,0.2-0.7,0.2c-0.4,0-0.7-0.1-1-0.4c-0.3-0.4-0.4-0.8-0.3-1.3C170.5,9.2,170.7,8.5,170.9,7.8
		L170.9,7.8z M177.6,6h1l-1.1,5.5c-0.2,1-0.4,2-0.7,3c-0.1,0.2-0.2,0.4-0.3,0.5c-0.1,0.1-0.2,0.1-0.4,0.1c-0.1,0-0.3-0.1-0.4-0.1
		c-0.1-0.1-0.3-0.3-0.3-0.5h-0.2c-0.1,0.3-0.1,0.5-0.2,0.7s-0.2,0.5-0.3,0.9c0.2,0.1,0.3,0.1,0.5,0.1c0.3,0,0.5-0.1,0.7-0.2
		c0.5-0.3,1-0.7,1.4-1.2c0.5-0.5,0.8-1.2,1.1-1.9c0.4-1.1,0.7-2.3,1-3.4l0.8-3.5h1.9c0.1-0.3,0.1-0.5,0.2-0.8l-0.1-0.1
		c-0.2,0-0.5,0.1-0.7,0.1c-0.5,0-0.9,0-1,0h-0.1c0.1-0.7,0.3-1.3,0.4-1.9c0-0.2,0.1-0.4,0.2-0.5c0.1-0.1,0.2-0.2,0.3-0.3
		c0.1-0.1,0.2-0.1,0.4-0.1c0.2,0,0.4,0.1,0.5,0.2c0.2,0.2,0.4,0.4,0.6,0.7h0.2c0.1-0.6,0.2-1.3,0.4-1.9c-0.2-0.1-0.4-0.1-0.6-0.1
		c-0.2,0-0.5,0-0.7,0.1c-0.4,0.2-0.7,0.4-1,0.7c-0.5,0.4-1,0.7-1.4,1.2c-0.2,0.2-0.4,0.5-0.6,0.8c-0.1,0.3-0.2,0.6-0.3,0.9
		c0,0.2-0.1,0.3-0.1,0.4c-0.3,0.1-0.5,0.2-0.8,0.3c-0.3,0.1-0.6,0.2-0.7,0.2L177.2,6L177.6,6L177.6,6z M76,22.5h-1.3
		c0,0.6,0,1.1-0.2,1.7c0,0.2-0.1,0.3-0.3,0.4c-0.8,0.2-1.6,0.2-2.5,0.2c-0.5,0-1.3,0-2.6-0.1v-2.1c0-2.6,0.1-4.4,0.2-5.4l1.6-0.1
		h1.4c0.8,0,1.6,0,2.3,0.2c0.4,0,0.9,0.2,1.3,0.4c0.1,0,0.1,0.1,0.1,0.1c0.1,0.3,0.1,0.5,0.1,0.8c0.1,0.8,0.1,1.3,0.1,1.6h1.2
		c0-0.7,0-1.4,0.1-2.3s0.2-1.6,0.3-2.2l-0.1-0.2c-1-0.1-1.9-0.2-2.9-0.1l-7.3,0.1l-5.3-0.1v1.3c0.6,0,1.2,0.1,1.8,0.2
		c0.2,0,0.3,0.1,0.4,0.2c0.1,0.1,0.1,0.2,0.1,0.3c0.1,0.5,0.2,1.1,0.2,1.6c0.1,2.7,0.1,4.1,0.1,4.2v6.2c0,0.5,0,1.4-0.1,2.6
		c-0.1,1.2-0.1,2-0.1,2.2c0,0.3-0.1,0.5-0.2,0.8c-0.1,0.1-0.1,0.1-0.2,0.2c-0.7,0.1-1.3,0.2-2,0.2v1.3c1.9-0.1,3.2-0.1,4.1-0.1
		l5.9,0.1v-1.2c-0.8,0-1.6-0.1-2.4-0.3c-0.2,0-0.3-0.1-0.4-0.3c-0.2-0.5-0.2-1.1-0.2-1.7c-0.1-1-0.1-2.6-0.1-5v-1.7h1.2
		c1.2,0,2.4,0,3.5,0.2c0.2,0,0.4,0.1,0.5,0.3c0.2,0.7,0.3,1.5,0.3,2.3H76L76,22.5z M84.4,36.3c0.7,0,1.8,0,3.5,0.1l3.6,0.1
		c1.3,0,2.2,0,2.9-0.1c0.3,0,0.6-0.1,0.9-0.1c0-0.2,0-0.8,0.1-1.7l0.4-3.1V31h-1.2c-0.2,1-0.4,1.8-0.6,2.6c0,0.2-0.1,0.4-0.3,0.6
		c-0.2,0.1-0.5,0.2-0.7,0.2c-1.3,0.2-2.7,0.3-4,0.3c-0.5,0-1.5,0-2.8-0.1v-2.6v-4.3v-4.4c0-1.7,0-3.1,0.1-4.2c0-0.6,0-1.3,0.1-1.9
		c0-0.1,0.1-0.2,0.2-0.3c0.7-0.2,1.4-0.3,2.1-0.3v-1.4c-1.6,0.1-3.4,0.1-5.2,0.1c-1.6,0-3.1,0-4.4-0.1v1.3c0.8,0,1.6,0.1,2.3,0.3
		c0.1,0.1,0.2,0.2,0.2,0.3c0.2,1.1,0.2,2.2,0.2,3.3v5.9c0,2.2,0,4-0.1,5.6s-0.1,2.4-0.1,2.7c0,0.1,0,0.1-0.1,0.2
		c-0.1,0.1-0.3,0.2-0.4,0.3c-0.4,0.2-0.7,0.4-1.1,0.6v0.8C81.9,36.3,83.4,36.3,84.4,36.3L84.4,36.3z M97.5,32.1
		c0.9,1.6,2.2,2.8,3.8,3.6c1.8,0.9,3.8,1.3,5.8,1.2c1.9,0,3.8-0.3,5.6-1c1.2-0.5,2.3-1.2,3.2-2.2c0.9-0.9,1.6-2,2.1-3.2
		c0.7-1.7,1-3.5,1-5.3c0-1-0.1-2.1-0.4-3.1c-0.2-0.9-0.5-1.8-1-2.6c-1.1-1.9-2.9-3.3-4.9-4c-1.6-0.5-3.3-0.8-5-0.8
		c-1.7,0-3.5,0.3-5.1,0.8c-2.6,0.9-4.7,3-5.8,5.5c-0.6,1.5-0.9,3.2-0.8,4.8C96,28.2,96.5,30.2,97.5,32.1L97.5,32.1z M101.5,20.7
		c0.4-1.2,1.2-2.3,2.3-3.1c1.1-0.7,2.4-1.1,3.8-1c1.1,0,2.1,0.2,3.1,0.6c0.8,0.5,1.5,1.1,2,1.9c0.6,0.9,1.1,1.9,1.3,3
		c0.3,1.3,0.5,2.6,0.5,3.9c0,1.8-0.2,3.6-0.8,5.3c-0.4,1.2-1.2,2.3-2.3,3c-1,0.6-2.2,0.9-3.4,0.9c-1.3,0-2.5-0.3-3.6-1
		c-1.1-0.8-2-2-2.5-3.3c-0.7-1.9-1.1-3.9-1-5.9C100.8,23.6,101,22.1,101.5,20.7L101.5,20.7z M121.2,16.8c0.1,0.1,0.2,0.2,0.2,0.3
		c0.1,0.7,0.2,1.5,0.2,2.3l0.1,3.2v5.6l-0.1,4.4c0,0.6-0.1,1.2-0.2,1.8c0,0.1-0.1,0.3-0.1,0.4c-0.1,0.1-0.2,0.1-0.3,0.2
		c-0.7,0.1-1.3,0.2-2,0.2v1.3c1.3-0.1,2.8-0.1,4.4-0.1c1.8,0,3.5,0,5.2,0.1v-1.3c-0.6,0-1.2,0-1.8-0.1c-0.2,0-0.3-0.1-0.4-0.2
		c-0.1-0.1-0.2-0.1-0.2-0.2c-0.1-0.4-0.2-0.7-0.2-1.1c0-0.3,0-1.5-0.1-3.5v-4.8c0-1,0-2.9,0.1-5.7c0-1.3,0-2.1,0.1-2.5
		c0.5-0.1,1-0.1,1.4-0.1c0.8,0,1.5,0,2.3,0.2c0.7,0.3,1.2,0.7,1.6,1.3c0.5,0.7,0.7,1.5,0.7,2.3c0,0.9-0.2,1.7-0.6,2.5
		c-0.3,0.7-0.9,1.2-1.6,1.5c-0.9,0.3-1.8,0.5-2.7,0.4l-0.2,0.5c0.4,0.3,0.7,0.6,0.9,1c0.7,0.9,1.5,2.1,2.4,3.6l3.2,5.3
		c0.2,0.3,0.3,0.6,0.4,0.9c0.8,0,1.6-0.1,2.4-0.1c0.7,0,1.8,0,3.4,0.1v-1.3c-0.3,0-0.7,0-1-0.1c-0.2-0.1-0.4-0.2-0.5-0.4
		c-0.2-0.2-0.6-0.8-1.4-1.8l-1-1.5l-2.4-3.5l-0.2-0.3c-0.1-0.1-0.2-0.4-0.6-0.9s-0.6-0.9-0.9-1.4c1.4-0.4,2.6-1.3,3.5-2.4
		c0.7-1,1.1-2.1,1.1-3.3c0-0.9-0.3-1.9-0.8-2.6c-0.5-0.7-1.2-1.2-2-1.4c-1.2-0.3-2.4-0.4-3.6-0.3c-0.8,0-1.9,0-3.1,0.1
		c-0.8,0-1.7,0.1-2.7,0.1h-2.9l-2.4-0.1v1.2C119.8,16.5,120.6,16.6,121.2,16.8L121.2,16.8z M145.4,15.4c-1.6,0-3.1,0-4.4-0.1v1.3
		c0.6,0,1.3,0,1.9,0.1c0.1,0,0.3,0.1,0.4,0.2c0.1,0.1,0.1,0.2,0.1,0.3c0.1,0.8,0.2,1.6,0.2,2.4v10.2c0,1,0,2.2-0.1,3.4
		c-0.1,0.8-0.1,1.3-0.1,1.4c0,0.1-0.1,0.2-0.1,0.2c-0.1,0.1-0.3,0.2-0.4,0.2c-0.2,0-0.8,0-1.8,0.1v1.3c1.4-0.1,2.9-0.1,4.4-0.1
		c1.9,0,3.6,0,5.3,0.1v-1.3c-0.6,0-1.2,0-1.8-0.1c-0.2,0-0.3-0.1-0.5-0.2c-0.1-0.1-0.2-0.2-0.2-0.3c-0.1-0.7-0.2-1.3-0.1-2v-8.9
		c0-0.2,0-1.5,0.1-4v-1.5c0-0.3,0.1-0.7,0.1-1c0-0.1,0.1-0.2,0.2-0.3c0.1-0.1,0.3-0.1,0.4-0.2c0.6-0.1,1.2-0.1,1.8-0.1v-1.4
		C149,15.3,147.2,15.3,145.4,15.4L145.4,15.4z M157.1,36.4l4.5,0.1c1.8,0,3.5-0.2,5.2-0.7c1.5-0.5,2.8-1.2,4-2.2
		c1.2-1,2.2-2.3,2.9-3.8c0.7-1.6,1.1-3.4,1.1-5.2c0-1.4-0.2-2.8-0.7-4.2c-0.3-0.8-0.7-1.5-1.3-2.1c-0.6-0.7-1.2-1.2-2-1.7
		c-0.9-0.5-1.8-0.8-2.8-1c-1.4-0.2-2.9-0.4-4.3-0.3c-0.8,0-1.8,0-3.1,0.1c-1.8,0.1-3,0.1-3.6,0.1l-5.4-0.2v1.2
		c1.1,0.1,1.7,0.2,1.9,0.3c0.1,0,0.3,0.1,0.4,0.2c0.1,0.1,0.1,0.1,0.1,0.2c0.1,0.9,0.2,1.8,0.2,2.7c0.1,2.6,0.1,4.5,0.1,5.9v2.5
		c0,3-0.1,5.2-0.2,6.6c-0.3,0.2-0.7,0.5-1,0.7l-0.4,0.2v0.7L157.1,36.4L157.1,36.4z M158.4,28.7v-3.5c0-4,0.1-6.7,0.2-8.1
		c0.9-0.1,1.7-0.2,2.6-0.2c1.6-0.1,3.1,0.1,4.6,0.5c1,0.3,1.9,1,2.5,1.8c0.7,0.8,1.2,1.8,1.4,2.8c0.3,1.1,0.4,2.2,0.4,3.3
		c0,1.2-0.1,2.4-0.4,3.5c-0.3,1-0.7,2-1.2,2.8c-0.4,0.7-1,1.3-1.7,1.8c-0.6,0.4-1.3,0.7-2,0.9c-1.2,0.3-2.4,0.4-3.6,0.4
		c-0.9,0-1.8-0.1-2.7-0.2C158.5,33.6,158.4,31.6,158.4,28.7L158.4,28.7z M175.6,36.4l3.5,0.1v-1.3c-0.7,0-1.5-0.1-2.2-0.3
		c-0.2-0.1-0.3-0.3-0.2-0.5c0.1-0.9,0.4-1.8,0.8-2.6l0.7-1.8h7.8l1.4,3.3c0.2,0.4,0.3,0.8,0.4,1.2c0,0.2-0.1,0.3-0.2,0.4
		c-0.7,0.2-1.4,0.2-2.1,0.2v1.3l5.3-0.1l4.2,0.1v-1.3l-0.7-0.1c-0.3,0-0.6,0-0.9-0.1c-0.1,0-0.2-0.1-0.3-0.2
		c-0.1-0.1-0.2-0.2-0.3-0.4l-0.6-1.4l-0.9-2.1l-6.7-15.9h-2.2l-1.3,3.4l-3.9,9.8c-0.5,1.2-1,2.5-1.5,3.7c-0.3,0.8-0.7,1.5-1,2.3
		c-0.1,0.2-0.2,0.3-0.3,0.5c-0.1,0.1-0.3,0.2-0.4,0.2c-0.5,0.1-1,0.1-1.5,0.2v1.3L175.6,36.4L175.6,36.4z M181.9,20.4l3.2,7.8h-6.4
		L181.9,20.4L181.9,20.4z M63,3c0.1,0,0.2,0.1,0.2,0.2c0,0.1,0.1,0.3,0.1,0.4v5.7c0.1,0.6,0.4,1.1,0.8,1.5c0.3,0.2,0.6,0.4,1,0.5
		c0.6,0.2,1.2,0.3,1.8,0.3c0.5,0,1-0.1,1.4-0.2c0.4-0.1,0.8-0.3,1.1-0.5c0.3-0.2,0.6-0.5,0.7-0.8c0.2-0.3,0.3-0.6,0.3-1
		c0.1-0.4,0.1-0.8,0.1-1.2V6.3V4.5c0-0.4,0-0.9,0.1-1.3c0-0.1,0.1-0.1,0.1-0.2c0.2-0.1,0.5-0.1,0.7-0.1V2.4l-1.4,0h-1.6V3
		c0.3,0,0.6,0,0.9,0.1c0.1,0,0.1,0.1,0.2,0.2c0.1,0.3,0.1,0.7,0.1,1v3.3c0,0.6,0,1.2-0.2,1.8c-0.2,0.3-0.4,0.6-0.8,0.8
		c-0.4,0.2-0.9,0.3-1.4,0.3c-0.4,0-0.8-0.1-1.2-0.2c-0.3-0.1-0.6-0.3-0.7-0.6c-0.2-0.3-0.3-0.6-0.3-1V5c0-0.6,0-1.2,0-1.7
		c0-0.1,0.1-0.2,0.1-0.2C65.7,3,66,2.9,66.2,3V2.4h-1.1l-0.9,0l-2,0V3L63,3L63,3z M74.3,11.3h3.1v-0.5h-0.1c-0.2,0-0.4,0-0.6-0.1
		c-0.1,0-0.1,0-0.2-0.1c0,0-0.1-0.1-0.1-0.1c-0.1-0.3-0.1-0.6-0.1-0.9V4.4c2.5,3.1,4.4,5.4,5.8,6.9l1.1,0.2l0.1-0.1
		c-0.1-0.6-0.1-2.3-0.1-5.1V4.6c0-0.5,0-1,0.1-1.5c0,0,0-0.1,0.1-0.1C83.6,3,83.9,2.9,84.2,3V2.4h-3V3c0.3,0,0.7,0,1,0.1
		c0.1,0.1,0.1,0.2,0.1,0.3c0.1,0.4,0.1,1.7,0.1,4v1.5c-0.6-0.6-1.3-1.4-2.2-2.5c-1.1-1.3-2.2-2.6-3.2-3.9h-2.7V3
		c0.3,0,0.5,0,0.8,0.1c0.1,0,0.1,0,0.2,0.1c0,0.1,0.1,0.1,0.1,0.2c0,0.2,0,0.4,0,0.6v5.2c0,0.6-0.1,1-0.1,1.2c0,0.1,0,0.2-0.1,0.2
		c0,0-0.1,0.1-0.1,0.1c-0.3,0-0.6,0.1-0.9,0.1L74.3,11.3L74.3,11.3z M89,2.5h-1.8V3c0.3,0,0.5,0,0.8,0c0.1,0,0.1,0,0.2,0.1
		c0,0,0.1,0.1,0.1,0.1c0.1,0.3,0.1,0.7,0.1,1v4.3c0,0.4,0,0.9-0.1,1.4v0.6c0,0,0,0.1-0.1,0.1c-0.1,0-0.1,0.1-0.2,0.1h-0.8v0.6h4
		v-0.5c-0.3,0-0.5,0-0.8,0c-0.1,0-0.2-0.1-0.2-0.1c0,0-0.1-0.1-0.1-0.1c-0.1-0.3-0.1-0.6-0.1-0.9V5.9V4.3V3.6c0-0.1,0-0.3,0.1-0.4
		c0-0.1,0.1-0.1,0.1-0.1c0.1,0,0.1-0.1,0.2-0.1c0.3,0,0.5,0,0.8,0V2.4L89,2.5L89,2.5z M99.1,11.4c0.3-0.7,0.8-2,1.5-3.7l0.9-2
		l0.4-1.1c0.2-0.5,0.4-1,0.7-1.4c0.2-0.1,0.5-0.1,0.7-0.1V2.4h-3V3h0.9c0,0,0.1,0,0.1,0.1c0,0.1,0,0.1,0,0.2c0,0,0,0.1,0,0.2
		c0,0.2-0.2,0.5-0.3,1c-0.1,0.4-0.3,0.8-0.4,1.2l-1.4,3.5l-1.6-3.8V5.1l-0.3-0.6c-0.2-0.4-0.3-0.8-0.4-1.2c0-0.1,0-0.1,0.1-0.2
		c0.1,0,0.1-0.1,0.2-0.1C97.3,3,97.6,3,97.8,3V2.4h-4.1V3c0.3,0,0.5,0,0.8,0.1c0.2,0.2,0.3,0.3,0.4,0.6C95,4,95.5,5,96.2,6.7
		l0.9,2.2l1,2.5L99.1,11.4L99.1,11.4z M108.2,11.2h3.1c0.4,0,0.8,0,1.2,0l0.1-0.1c0-0.7,0.1-1.4,0.1-2.1h-0.4c0,0.4-0.1,0.8-0.2,1.1
		c0,0,0,0.1-0.1,0.1c-0.2,0.1-0.5,0.1-0.7,0.1h-2.5V7.1c0.3,0,0.7,0,1,0c0.4,0,0.8,0,1.1,0.1c0.1,0,0.2,0.1,0.3,0.2
		c0.1,0.3,0.1,0.6,0.1,0.9h0.5V5.4h-0.5c0,0.3,0,0.5-0.1,0.8c0,0.1,0,0.1-0.1,0.1c-0.1,0-0.3,0-0.4,0h-1.9V5.1c0-0.6,0-1.2,0.1-1.8
		h1.2c0.4,0,0.8,0,1.2,0.1c0.2,0,0.3,0,0.5,0.1c0,0,0.1,0.1,0.1,0.1c0,0.3,0.1,0.6,0.1,0.9h0.5l0.1-0.9l0.1-0.9V2.5l-0.3-0.1h-6.5V3
		c0.3,0,0.6,0,0.9,0.1c0,0,0.1,0.1,0.1,0.1c0.1,0.3,0.1,0.6,0.1,0.9v4.1c0,0.3,0,0.9-0.1,1.6c0,0.4,0,0.7-0.1,0.9
		c-0.2,0.1-0.4,0.3-0.6,0.4v0.3L108.2,11.2z M116.6,3.1c0,0,0.1,0.1,0.1,0.1c0.1,0.3,0.1,0.7,0.1,1v3.7l-0.1,1.9
		c0,0.3,0,0.5-0.1,0.8c0,0.1,0,0.1-0.1,0.2c0,0-0.1,0.1-0.1,0.1c-0.3,0-0.6,0.1-0.8,0.1v0.6h4v-0.6c-0.2,0-0.5,0-0.7,0
		c-0.1,0-0.1,0-0.2-0.1c0,0-0.1-0.1-0.1-0.1c0-0.1-0.1-0.3-0.1-0.5V8.6v-2V4.2v-1c0.2,0,0.4-0.1,0.6,0c0.3,0,0.7,0,1,0.1
		c0.3,0.1,0.5,0.3,0.7,0.5c0.2,0.3,0.3,0.6,0.3,1c0,0.4-0.1,0.7-0.3,1c-0.1,0.3-0.4,0.5-0.7,0.7c-0.4,0.1-0.8,0.2-1.2,0.2L119,6.9
		c0.2,0.1,0.3,0.3,0.4,0.4c0.3,0.4,0.6,0.9,1,1.5l1.4,2.2c0.1,0.1,0.1,0.2,0.2,0.4h2.4v-0.6c-0.1,0-0.3,0-0.4-0.1
		c-0.1,0-0.2-0.1-0.2-0.2c-0.1-0.1-0.3-0.3-0.6-0.7l-0.4-0.6l-1-1.5l-0.1-0.1l-0.2-0.3c-0.1-0.2-0.3-0.4-0.4-0.6
		c0.6-0.2,1.1-0.5,1.5-1c0.3-0.4,0.5-0.9,0.5-1.4c0-0.4-0.1-0.8-0.3-1.1c-0.2-0.3-0.5-0.5-0.8-0.6c-0.5-0.1-1-0.2-1.5-0.1h-4.7V3
		C116,3,116.3,3,116.6,3.1L116.6,3.1z M133,3.7c0-0.3,0.1-0.5,0.1-0.8l-0.1-0.2c-0.3-0.2-0.7-0.3-1.1-0.3c-0.4-0.1-0.9-0.1-1.3-0.1
		c-0.4,0-0.8,0-1.3,0.1c-0.4,0.1-0.8,0.2-1.1,0.5c-0.3,0.2-0.6,0.6-0.8,0.9c-0.2,0.4-0.3,0.9-0.3,1.3c0,0.3,0.1,0.6,0.2,0.9
		c0.1,0.3,0.3,0.5,0.5,0.8c0.3,0.2,0.6,0.4,0.9,0.5c0.2,0.1,0.7,0.2,1.5,0.3c0.4,0.1,0.8,0.2,1.1,0.4c0.2,0.1,0.4,0.3,0.5,0.5
		c0.1,0.2,0.2,0.5,0.1,0.7c0,0.3-0.1,0.6-0.2,0.9c-0.2,0.3-0.4,0.5-0.7,0.6c-0.3,0.1-0.7,0.2-1.1,0.2c-0.4,0-0.9-0.1-1.3-0.3
		c-0.3-0.1-0.6-0.4-0.8-0.7c-0.1-0.4-0.1-0.8-0.1-1.1h-0.5c0,0.7,0,1.5-0.2,2.2c0.4,0.2,0.9,0.4,1.3,0.5c0.5,0.1,0.9,0.2,1.4,0.1
		c0.6,0,1.2-0.1,1.8-0.3c0.3-0.1,0.7-0.3,0.9-0.6c0.3-0.2,0.5-0.5,0.7-0.9c0.2-0.4,0.4-0.9,0.3-1.4c0-0.3,0-0.6-0.1-0.8
		c-0.1-0.2-0.2-0.4-0.3-0.6c-0.1-0.2-0.3-0.3-0.5-0.4c-0.3-0.1-0.5-0.3-0.8-0.3L131.1,6l-1-0.2c-0.3-0.1-0.5-0.2-0.7-0.3
		c-0.2-0.1-0.3-0.2-0.4-0.4c-0.1-0.2-0.1-0.4-0.1-0.7c0-0.4,0.2-0.7,0.5-1c0.4-0.3,0.9-0.5,1.3-0.4c0.4,0,0.7,0.1,1.1,0.2
		c0.3,0.1,0.5,0.3,0.7,0.5c0,0.3,0.1,0.7,0.1,1h0.5C133,4.3,133,3.9,133,3.7L133,3.7z M138.6,2.5h-1.8V3c0.3,0,0.5,0,0.8,0
		c0.1,0,0.1,0,0.1,0.1c0,0,0.1,0.1,0.1,0.1c0,0.3,0.1,0.7,0.1,1v4.3c0,0.4,0,0.9-0.1,1.4v0.6c0,0,0,0.1-0.1,0.1
		c-0.1,0-0.1,0.1-0.2,0.1h-0.8v0.6h4v-0.5c-0.3,0-0.5,0-0.8,0c-0.1,0-0.1,0-0.2-0.1c0,0-0.1-0.1-0.1-0.1c-0.1-0.3-0.1-0.6-0.1-0.9
		V5.9V4.3V3.6c0-0.1,0-0.3,0.1-0.4c0,0,0-0.1,0.1-0.1c0.1,0,0.1-0.1,0.2-0.1c0.3,0,0.5,0,0.8,0V2.4L138.6,2.5L138.6,2.5z
		 M147.5,11.2c0.6,0,1.3,0,2.1,0.1v-0.5c-0.3,0-0.6,0-0.9-0.1c-0.1,0-0.2-0.1-0.2-0.2c-0.1-0.5-0.1-1.1-0.1-1.6V5V3.3h0.9
		c0.5,0,0.9,0,1.3,0c0.1,0,0.1,0,0.2,0c0,0.1,0.1,0.2,0.1,0.3c0,0.3,0.1,0.6,0.1,0.9h0.5V3.1c0-0.2,0-0.5,0.1-0.7l-0.1-0.1h-8
		l-0.1,0.1c0,0.2,0,0.4,0.1,0.6s0,0.7,0,1.5h0.5c0-0.3,0-0.7,0.1-1c0-0.1,0-0.2,0.1-0.2c0.1,0,0.2-0.1,0.2,0h2.1v5.5
		c0,0.5,0,1.1-0.1,1.6c0,0.1-0.1,0.2-0.2,0.3c-0.3,0.1-0.6,0.1-0.9,0.1v0.5C146.1,11.3,146.8,11.2,147.5,11.2L147.5,11.2z
		 M157.9,4.9c-0.3-0.5-0.6-1.1-0.9-1.6c-0.1-0.2-0.3-0.4-0.5-0.6c-0.2-0.2-0.4-0.3-0.6-0.4l-0.7,0.2l-1.4,0.3v0.6c0.2,0,0.4,0,0.6,0
		c0.2,0.1,0.3,0.3,0.4,0.4c0.4,0.4,0.7,0.9,1,1.4c0.5,0.7,0.9,1.4,1.3,2.2c0.1,0.2,0.2,0.4,0.2,0.6v2.4c0,0.1,0,0.3-0.1,0.4
		c0,0.1-0.1,0.1-0.2,0.1c-0.3,0-0.6,0.1-0.9,0.1v0.6h4.1v-0.6c-0.3,0-0.6,0-0.8-0.1c-0.1,0-0.1-0.1-0.2-0.1
		c-0.1-0.1-0.1-0.3-0.1-0.4c0-0.4,0-0.8,0-1.2V7.9c0-0.2,0-0.3,0-0.5c0-0.2,0.1-0.3,0.2-0.5c0.1-0.3,0.5-0.9,1.1-1.8
		s1.2-1.7,1.7-2.4V2.4h-1c-0.1,0.1-0.2,0.4-0.4,0.8l-1.2,2.1l-0.8,1.3C158.7,6.4,158.4,5.8,157.9,4.9L157.9,4.9z"/>
	<path class="st0" d="M36.2,30.6v-8.7h8v-5.7h-8V8.1h8.8v3.1h5.8V2.5H27.5v5.7h2.2v22.5h-2.2v5.7h10.7v-5.7L36.2,30.6z M24.5,23.5
		V8.1h2.1V2.5H16v5.7h2.1v13.5c0,5.7-0.6,8.4-4.7,8.4s-4.7-2.8-4.7-8.4V8.1h2.1V2.5H0v5.7h2.1v15.4c0,3.4,0,6.1,1.6,8.6
		c1.8,2.8,5,4.6,9.7,4.6C21.6,36.7,24.5,32.4,24.5,23.5z"/>
</g>
</svg>
