<?xml version="1.0" encoding="UTF-8" ?>
<!DOCTYPE svg PUBLIC "-//W3C//DTD SVG 1.1//EN" "http://www.w3.org/Graphics/SVG/1.1/DTD/svg11.dtd">
<svg width="265pt" height="200pt" viewBox="0 0 265 200" version="1.1" xmlns="http://www.w3.org/2000/svg">
<g id="#fbd200ff">
<path fill="#fbd200" opacity="1.00" d=" M 91.41 0.00 L 105.91 0.00 C 139.39 2.57 171.34 21.75 187.62 51.38 C 198.75 71.09 202.96 94.68 199.05 117.00 C 197.57 107.60 200.20 97.75 197.51 88.58 C 194.11 81.13 184.26 83.21 178.91 87.26 C 178.76 86.52 178.47 85.05 178.32 84.32 C 175.97 84.27 173.63 84.26 171.28 84.28 C 171.20 95.28 171.34 106.28 171.21 117.27 C 173.86 117.57 176.54 117.56 179.22 117.41 C 179.33 109.35 179.17 101.29 179.28 93.24 C 182.00 90.50 188.26 87.66 190.34 92.47 C 191.12 100.66 190.50 108.95 190.63 117.18 C 193.39 117.65 196.19 117.52 198.98 117.52 C 193.52 151.75 168.58 181.83 136.21 194.04 C 129.64 196.83 122.54 197.90 115.76 200.00 L 88.43 200.00 C 54.73 196.46 23.86 174.24 9.55 143.57 C 5.15 133.66 0.91 122.82 1.08 111.96 C 5.99 118.05 15.23 120.16 22.02 116.05 C 27.88 112.31 27.06 102.12 20.65 99.35 C 17.11 96.94 11.06 97.23 9.33 92.86 C 10.02 87.21 17.56 89.66 20.11 92.74 C 21.78 91.42 23.42 90.06 25.03 88.67 C 20.51 83.30 11.66 81.69 5.85 85.85 C 1.37 88.98 1.02 96.32 5.08 99.93 C 8.68 103.18 13.87 103.53 17.78 106.24 C 19.79 107.65 18.89 111.01 16.67 111.72 C 12.58 113.78 8.87 110.14 6.11 107.55 C 4.33 108.91 2.60 110.33 0.89 111.76 L 0.39 111.16 C 0.21 109.63 0.08 108.09 0.00 106.56 L 0.00 94.45 C 1.87 50.90 35.61 11.49 78.24 2.67 C 82.57 1.46 87.20 1.67 91.41 0.00 M 121.58 76.29 C 121.63 79.78 121.66 83.27 121.62 86.76 C 117.39 83.43 111.17 82.16 106.63 85.63 C 98.69 91.65 98.69 103.83 102.93 112.06 C 106.52 119.26 117.15 120.06 122.33 114.14 C 122.59 115.27 122.86 116.39 123.14 117.52 C 125.29 117.50 127.44 117.49 129.59 117.48 C 129.64 103.74 129.57 90.00 129.62 76.27 C 126.94 76.17 124.26 76.17 121.58 76.29 M 32.11 84.28 C 31.92 93.59 31.19 103.08 32.75 112.29 C 35.65 120.43 46.46 118.89 51.81 114.13 C 51.90 114.92 52.10 116.49 52.19 117.28 C 54.58 117.66 57.00 117.49 59.40 117.42 C 59.22 106.36 59.86 95.21 59.08 84.21 C 56.53 84.28 53.97 84.26 51.42 84.31 C 51.40 92.21 51.54 100.12 51.38 108.01 C 49.21 111.69 40.75 113.99 40.10 108.06 C 39.58 100.15 40.05 92.20 39.88 84.28 C 37.29 84.27 34.70 84.27 32.11 84.28 M 74.43 87.16 C 75.17 82.54 69.57 84.72 66.82 84.38 C 66.85 95.39 66.77 106.39 66.86 117.40 C 69.53 117.51 72.20 117.61 74.86 117.31 C 74.74 110.20 74.83 103.09 74.78 95.97 C 73.97 90.12 86.04 86.84 86.31 93.97 C 86.56 101.80 86.29 109.64 86.43 117.48 C 89.09 117.50 91.77 117.64 94.42 117.25 C 94.28 109.17 94.52 101.09 94.30 93.01 C 94.24 88.40 90.82 83.83 85.99 83.58 C 81.70 82.83 78.14 85.57 74.43 87.16 M 138.26 89.16 C 138.99 91.11 141.46 91.97 142.96 93.37 C 146.19 87.95 157.30 87.86 155.38 96.10 C 149.89 97.05 143.96 97.83 139.54 101.54 C 134.82 105.44 135.02 114.32 140.78 117.14 C 145.62 119.58 151.00 117.31 155.42 115.04 C 155.76 115.67 156.45 116.91 156.80 117.54 C 159.11 117.55 161.43 117.54 163.74 117.32 C 162.32 107.96 164.89 98.16 161.97 89.04 C 157.21 80.83 143.64 82.18 138.26 89.16 M 13.49 122.33 C 13.47 123.47 13.46 124.61 13.46 125.75 C 14.78 125.75 16.11 125.74 17.43 125.72 C 17.42 124.61 17.40 123.49 17.39 122.38 C 16.09 122.36 14.79 122.34 13.49 122.33 M 59.56 122.39 C 59.54 123.49 59.53 124.60 59.52 125.70 C 60.73 125.76 61.93 125.82 63.14 125.87 C 63.44 124.63 63.38 123.41 62.96 122.22 C 61.82 122.27 60.69 122.33 59.56 122.39 M 50.40 123.49 C 50.34 125.00 50.31 126.52 50.26 128.03 C 49.73 128.39 48.68 129.10 48.16 129.45 C 47.91 130.98 48.74 131.81 50.23 132.07 C 50.54 135.56 49.99 139.11 50.57 142.57 C 51.61 145.38 58.52 145.80 57.33 141.82 C 56.27 141.62 55.20 141.43 54.14 141.24 C 54.13 138.12 54.12 135.00 54.14 131.89 C 56.06 131.78 58.18 131.29 57.20 128.84 C 56.47 128.77 55.00 128.62 54.27 128.55 C 54.15 126.84 54.01 125.13 53.77 123.44 C 52.65 123.45 51.53 123.47 50.40 123.49 M 93.30 123.44 C 93.17 124.92 93.16 126.41 93.04 127.89 C 90.56 128.77 90.04 131.46 92.82 132.32 C 93.69 135.70 92.78 139.32 93.27 142.78 C 94.37 145.31 97.52 144.36 99.67 144.54 C 99.73 143.56 99.77 142.58 99.80 141.60 C 99.04 141.54 97.53 141.44 96.78 141.38 C 96.63 138.18 96.64 134.98 96.73 131.78 C 97.50 131.70 99.03 131.55 99.80 131.48 C 99.78 130.56 99.73 129.64 99.68 128.73 C 98.95 128.67 97.48 128.56 96.75 128.51 C 96.69 126.83 96.67 125.16 96.61 123.49 C 95.51 123.47 94.40 123.45 93.30 123.44 M 67.55 123.51 C 67.50 125.05 67.49 126.61 67.42 128.16 C 66.77 128.61 65.47 129.51 64.82 129.96 C 65.64 130.88 66.53 131.72 67.48 132.49 C 67.28 137.68 66.08 146.92 74.31 144.45 C 75.03 141.97 73.63 141.27 71.45 141.37 C 71.06 138.15 71.24 134.91 71.31 131.68 C 72.07 131.62 73.58 131.52 74.34 131.47 C 75.02 128.92 73.41 128.42 71.28 128.50 C 71.24 126.86 71.24 125.22 71.21 123.58 C 70.29 123.56 68.46 123.53 67.55 123.51 M 76.42 128.61 C 76.51 133.14 75.96 137.76 76.73 142.24 C 78.27 145.56 82.35 144.66 84.99 143.36 C 86.28 144.01 87.64 144.44 89.12 144.35 C 89.18 139.15 89.20 133.94 89.08 128.74 C 88.25 128.69 86.58 128.60 85.75 128.55 C 85.09 132.34 85.65 136.21 85.45 140.04 C 84.15 141.12 82.60 141.80 80.88 141.66 C 78.90 137.58 80.32 132.91 79.74 128.57 C 78.63 128.58 77.52 128.59 76.42 128.61 M 13.56 128.64 C 13.48 133.88 13.48 139.11 13.56 144.34 C 14.50 144.33 16.38 144.32 17.32 144.31 C 17.38 139.10 17.39 133.89 17.32 128.69 C 16.38 128.68 14.50 128.66 13.56 128.64 M 20.87 128.63 C 21.04 133.89 20.28 139.27 21.29 144.45 C 22.37 144.43 23.45 144.40 24.53 144.37 C 24.62 140.56 24.54 136.76 24.59 132.95 C 25.94 131.93 28.25 130.40 29.68 132.10 C 30.27 136.19 29.32 140.38 30.29 144.43 C 31.42 144.41 32.55 144.41 33.69 144.40 C 33.70 139.86 34.27 135.21 33.29 130.75 C 31.78 127.40 27.63 128.37 25.01 129.65 C 23.72 128.96 22.35 128.54 20.87 128.63 M 36.35 133.00 C 36.24 137.03 41.16 137.62 43.91 139.16 C 44.59 143.22 39.61 141.64 37.94 139.89 C 37.44 140.22 36.42 140.88 35.92 141.20 C 37.68 146.12 47.40 145.86 47.42 140.00 C 47.55 135.45 41.99 135.25 39.24 133.02 C 40.73 128.52 45.08 134.80 46.94 130.92 C 44.46 127.00 36.11 127.59 36.35 133.00 M 59.63 128.64 C 59.56 133.88 59.56 139.11 59.62 144.35 C 60.54 144.34 62.37 144.31 63.29 144.30 C 63.33 139.10 63.34 133.90 63.29 128.70 C 62.37 128.68 60.54 128.65 59.63 128.64 M 105.03 144.37 C 108.19 145.08 111.48 144.27 113.75 141.92 C 112.64 139.36 110.26 140.38 108.48 141.44 C 105.85 142.47 104.36 139.39 104.10 137.26 C 107.27 137.10 110.45 137.15 113.63 137.17 C 114.53 133.05 111.73 127.83 107.01 128.44 C 99.12 128.64 98.29 141.68 105.03 144.37 Z" />
<path fill="#fbd200" opacity="1.00" d=" M 111.95 90.91 C 115.08 88.68 118.85 90.40 121.56 92.43 C 121.73 97.86 121.60 103.29 121.63 108.72 C 118.43 113.11 110.65 112.59 109.03 107.03 C 107.69 101.79 107.10 94.57 111.95 90.91 Z" />
<path fill="#fbd200" opacity="1.00" d=" M 145.33 105.32 C 147.91 102.64 151.88 102.28 155.32 101.56 C 155.43 104.01 155.42 106.47 155.25 108.93 C 152.78 110.43 150.11 112.74 147.04 112.16 C 144.00 111.56 143.27 107.34 145.33 105.32 Z" />
<path fill="#fbd200" opacity="1.00" d=" M 104.13 134.49 C 104.29 130.50 109.92 130.14 110.57 134.12 C 108.50 134.87 106.28 134.50 104.13 134.49 Z" />
</g>
<g id="#070607ff">
<path fill="#070607" opacity="1.00" d=" M 121.58 76.29 C 124.26 76.17 126.94 76.17 129.62 76.27 C 129.57 90.00 129.64 103.74 129.59 117.48 C 127.44 117.49 125.29 117.50 123.14 117.52 C 122.86 116.39 122.59 115.27 122.33 114.14 C 117.15 120.06 106.52 119.26 102.93 112.06 C 98.69 103.83 98.69 91.65 106.63 85.63 C 111.17 82.16 117.39 83.43 121.62 86.76 C 121.66 83.27 121.63 79.78 121.58 76.29 M 111.95 90.91 C 107.10 94.57 107.69 101.79 109.03 107.03 C 110.65 112.59 118.43 113.11 121.63 108.72 C 121.60 103.29 121.73 97.86 121.56 92.43 C 118.85 90.40 115.08 88.68 111.95 90.91 Z" />
<path fill="#070607" opacity="1.00" d=" M 5.85 85.85 C 11.66 81.69 20.51 83.30 25.03 88.67 C 23.42 90.06 21.78 91.42 20.11 92.74 C 17.56 89.66 10.02 87.21 9.33 92.86 C 11.06 97.23 17.11 96.94 20.65 99.35 C 27.06 102.12 27.88 112.31 22.02 116.05 C 15.23 120.16 5.99 118.05 1.08 111.96 C 1.03 111.91 0.94 111.81 0.89 111.76 C 2.60 110.33 4.33 108.91 6.11 107.55 C 8.87 110.14 12.58 113.78 16.67 111.72 C 18.89 111.01 19.79 107.65 17.78 106.24 C 13.87 103.53 8.68 103.18 5.08 99.93 C 1.02 96.32 1.37 88.98 5.85 85.85 Z" />
<path fill="#070607" opacity="1.00" d=" M 32.11 84.28 C 34.70 84.27 37.29 84.27 39.88 84.28 C 40.05 92.20 39.58 100.15 40.10 108.06 C 40.75 113.99 49.21 111.69 51.38 108.01 C 51.54 100.12 51.40 92.21 51.42 84.31 C 53.97 84.26 56.53 84.28 59.08 84.21 C 59.86 95.21 59.22 106.36 59.40 117.42 C 57.00 117.49 54.58 117.66 52.19 117.28 C 52.10 116.49 51.90 114.92 51.81 114.13 C 46.46 118.89 35.65 120.43 32.75 112.29 C 31.19 103.08 31.92 93.59 32.11 84.28 Z" />
<path fill="#070607" opacity="1.00" d=" M 74.43 87.16 C 78.14 85.57 81.70 82.83 85.99 83.58 C 90.82 83.83 94.24 88.40 94.30 93.01 C 94.52 101.09 94.28 109.17 94.42 117.25 C 91.77 117.64 89.09 117.50 86.43 117.48 C 86.29 109.64 86.56 101.80 86.31 93.97 C 86.04 86.84 73.97 90.12 74.78 95.97 C 74.83 103.09 74.74 110.20 74.86 117.31 C 72.20 117.61 69.53 117.51 66.86 117.40 C 66.77 106.39 66.85 95.39 66.82 84.38 C 69.57 84.72 75.17 82.54 74.43 87.16 Z" />
<path fill="#070607" opacity="1.00" d=" M 138.26 89.16 C 143.64 82.18 157.21 80.83 161.97 89.04 C 164.89 98.16 162.32 107.96 163.74 117.32 C 161.43 117.54 159.11 117.55 156.80 117.54 C 156.45 116.91 155.76 115.67 155.42 115.04 C 151.00 117.31 145.62 119.58 140.78 117.14 C 135.02 114.32 134.82 105.44 139.54 101.54 C 143.96 97.83 149.89 97.05 155.38 96.10 C 157.30 87.86 146.19 87.95 142.96 93.37 C 141.46 91.97 138.99 91.11 138.26 89.16 M 145.33 105.32 C 143.27 107.34 144.00 111.56 147.04 112.16 C 150.11 112.74 152.78 110.43 155.25 108.93 C 155.42 106.47 155.43 104.01 155.32 101.56 C 151.88 102.28 147.91 102.64 145.33 105.32 Z" />
<path fill="#070607" opacity="1.00" d=" M 171.28 84.28 C 173.63 84.26 175.97 84.27 178.32 84.32 C 178.47 85.05 178.76 86.52 178.91 87.26 C 184.26 83.21 194.11 81.13 197.51 88.58 C 200.20 97.75 197.57 107.60 199.05 117.00 L 198.98 117.52 C 196.19 117.52 193.39 117.65 190.63 117.18 C 190.50 108.95 191.12 100.66 190.34 92.47 C 188.26 87.66 182.00 90.50 179.28 93.24 C 179.17 101.29 179.33 109.35 179.22 117.41 C 176.54 117.56 173.86 117.57 171.21 117.27 C 171.34 106.28 171.20 95.28 171.28 84.28 Z" />
<path fill="#070607" opacity="1.00" d=" M 207.83 88.86 C 213.75 80.57 228.46 82.48 231.86 92.19 C 229.81 93.19 227.70 94.09 225.51 94.73 C 223.81 88.91 214.84 87.74 213.02 94.06 C 211.90 99.62 210.90 107.12 215.81 111.20 C 220.04 113.16 224.03 110.50 226.26 106.97 C 228.21 107.58 230.01 108.55 231.78 109.55 C 228.49 120.04 211.65 120.97 206.80 111.23 C 203.44 104.35 203.35 95.26 207.83 88.86 Z" />
<path fill="#070607" opacity="1.00" d=" M 239.03 90.14 C 242.88 83.14 253.40 81.39 259.34 86.68 C 263.60 90.40 264.83 96.47 264.26 101.89 C 257.58 102.26 250.88 101.78 244.20 102.16 C 244.07 105.59 245.32 108.79 247.66 111.27 C 251.85 112.61 256.09 111.30 258.96 108.06 C 260.70 109.07 262.39 110.15 264.07 111.28 C 259.13 120.41 242.84 120.43 238.53 110.61 C 235.70 104.21 235.65 96.34 239.03 90.14 M 244.19 96.61 C 248.48 96.85 252.78 96.75 257.07 96.72 C 258.09 87.68 243.71 87.81 244.19 96.61 Z" />
<path fill="#070607" opacity="1.00" d=" M 13.49 122.33 C 14.79 122.34 16.09 122.36 17.39 122.38 C 17.40 123.49 17.42 124.61 17.43 125.72 C 16.11 125.74 14.78 125.75 13.46 125.75 C 13.46 124.61 13.47 123.47 13.49 122.33 Z" />
<path fill="#070607" opacity="1.00" d=" M 59.56 122.39 C 60.69 122.33 61.82 122.27 62.96 122.22 C 63.38 123.41 63.44 124.63 63.14 125.87 C 61.93 125.82 60.73 125.76 59.52 125.70 C 59.53 124.60 59.54 123.49 59.56 122.39 Z" />
<path fill="#070607" opacity="1.00" d=" M 50.40 123.49 C 51.53 123.47 52.65 123.45 53.77 123.44 C 54.01 125.13 54.15 126.84 54.27 128.55 C 55.00 128.62 56.47 128.77 57.20 128.84 C 58.18 131.29 56.06 131.78 54.14 131.89 C 54.12 135.00 54.13 138.12 54.14 141.24 C 55.20 141.43 56.27 141.62 57.33 141.82 C 58.52 145.80 51.61 145.38 50.57 142.57 C 49.99 139.11 50.54 135.56 50.23 132.07 C 48.74 131.81 47.91 130.98 48.16 129.45 C 48.68 129.10 49.73 128.39 50.26 128.03 C 50.31 126.52 50.34 125.00 50.40 123.49 Z" />
<path fill="#070607" opacity="1.00" d=" M 93.30 123.44 C 94.40 123.45 95.51 123.47 96.61 123.49 C 96.67 125.16 96.69 126.83 96.75 128.51 C 97.48 128.56 98.95 128.67 99.68 128.73 C 99.73 129.64 99.78 130.56 99.80 131.48 C 99.03 131.55 97.50 131.70 96.73 131.78 C 96.64 134.98 96.63 138.18 96.78 141.38 C 97.53 141.44 99.04 141.54 99.80 141.60 C 99.77 142.58 99.73 143.56 99.67 144.54 C 97.52 144.36 94.37 145.31 93.27 142.78 C 92.78 139.32 93.69 135.70 92.82 132.32 C 90.04 131.46 90.56 128.77 93.04 127.89 C 93.16 126.41 93.17 124.92 93.30 123.44 Z" />
<path fill="#070607" opacity="1.00" d=" M 67.55 123.51 C 68.46 123.53 70.29 123.56 71.21 123.58 C 71.24 125.22 71.24 126.86 71.28 128.50 C 73.41 128.42 75.02 128.92 74.34 131.47 C 73.58 131.52 72.07 131.62 71.31 131.68 C 71.24 134.91 71.06 138.15 71.45 141.37 C 73.63 141.27 75.03 141.97 74.31 144.45 C 66.08 146.92 67.28 137.68 67.48 132.49 C 66.53 131.72 65.64 130.88 64.82 129.96 C 65.47 129.51 66.77 128.61 67.42 128.16 C 67.49 126.61 67.50 125.05 67.55 123.51 Z" />
<path fill="#070607" opacity="1.00" d=" M 76.42 128.61 C 77.52 128.59 78.63 128.58 79.74 128.57 C 80.32 132.91 78.90 137.58 80.88 141.66 C 82.60 141.80 84.15 141.12 85.45 140.04 C 85.65 136.21 85.09 132.34 85.75 128.55 C 86.58 128.60 88.25 128.69 89.08 128.74 C 89.20 133.94 89.18 139.15 89.12 144.35 C 87.64 144.44 86.28 144.01 84.99 143.36 C 82.35 144.66 78.27 145.56 76.73 142.24 C 75.96 137.76 76.51 133.14 76.42 128.61 Z" />
<path fill="#070607" opacity="1.00" d=" M 13.56 128.64 C 14.50 128.66 16.38 128.68 17.32 128.69 C 17.39 133.89 17.38 139.10 17.32 144.31 C 16.38 144.32 14.50 144.33 13.56 144.34 C 13.48 139.11 13.48 133.88 13.56 128.64 Z" />
<path fill="#070607" opacity="1.00" d=" M 20.87 128.63 C 22.35 128.54 23.72 128.96 25.01 129.65 C 27.63 128.37 31.78 127.40 33.29 130.75 C 34.27 135.21 33.70 139.86 33.69 144.40 C 32.55 144.41 31.42 144.41 30.29 144.43 C 29.32 140.38 30.27 136.19 29.68 132.10 C 28.25 130.40 25.94 131.93 24.59 132.95 C 24.54 136.76 24.62 140.56 24.53 144.37 C 23.45 144.40 22.37 144.43 21.29 144.45 C 20.28 139.27 21.04 133.89 20.87 128.63 Z" />
<path fill="#070607" opacity="1.00" d=" M 36.35 133.00 C 36.11 127.59 44.46 127.00 46.94 130.92 C 45.08 134.80 40.73 128.52 39.24 133.02 C 41.99 135.25 47.55 135.45 47.42 140.00 C 47.40 145.86 37.68 146.12 35.92 141.20 C 36.42 140.88 37.44 140.22 37.94 139.89 C 39.61 141.64 44.59 143.22 43.91 139.16 C 41.16 137.62 36.24 137.03 36.35 133.00 Z" />
<path fill="#070607" opacity="1.00" d=" M 59.63 128.64 C 60.54 128.65 62.37 128.68 63.29 128.70 C 63.34 133.90 63.33 139.10 63.29 144.30 C 62.37 144.31 60.54 144.34 59.62 144.35 C 59.56 139.11 59.56 133.88 59.63 128.64 Z" />
<path fill="#070607" opacity="1.00" d=" M 105.03 144.37 C 98.29 141.68 99.12 128.64 107.01 128.44 C 111.73 127.83 114.53 133.05 113.63 137.17 C 110.45 137.15 107.27 137.10 104.10 137.26 C 104.36 139.39 105.85 142.47 108.48 141.44 C 110.26 140.38 112.64 139.36 113.75 141.92 C 111.48 144.27 108.19 145.08 105.03 144.37 M 104.13 134.49 C 106.28 134.50 108.50 134.87 110.57 134.12 C 109.92 130.14 104.29 130.50 104.13 134.49 Z" />
</g>
</svg>
