<?xml version="1.0" encoding="utf-8"?>
<!-- Generator: Adobe Illustrator 22.0.1, SVG Export Plug-In . SVG Version: 6.00 Build 0)  -->
<svg version="1.1" id="Layer_1" xmlns="http://www.w3.org/2000/svg" xmlns:xlink="http://www.w3.org/1999/xlink" x="0px" y="0px"
	 viewBox="0 0 195 37" style="enable-background:new 0 0 195 37;" xml:space="preserve">
<style type="text/css">
	.st0{fill:#FFFFFF;}
</style>
<g>
	<path class="st0" d="M63.1,56.7v33.9h1.5V56.7H63.1z"/>
	<path class="st0" d="M176.1,65.5c0.1,0.4,0.4,0.7,0.7,0.8c0.4,0.2,0.9,0.3,1.4,0.3c0.5,0,0.9-0.1,1.3-0.2c0.4-0.2,0.8-0.4,1.2-0.7
		c0.3-0.2,0.7-0.5,0.9-0.8c0.3-0.4,0.6-0.9,0.7-1.5c0.2-0.6,0.3-1.3,0.3-1.9c0-0.3,0-0.6-0.1-0.9c-0.1-0.3-0.2-0.5-0.4-0.7
		c-0.2-0.2-0.5-0.4-0.8-0.5c-0.4-0.1-0.8-0.2-1.1-0.2c-0.5,0-1,0.1-1.4,0.3c-0.4,0.2-0.9,0.4-1.2,0.7c-0.3,0.2-0.5,0.4-0.8,0.7
		c-0.3,0.4-0.5,0.9-0.7,1.4c-0.2,0.6-0.3,1.2-0.3,1.9C175.9,64.7,176,65.1,176.1,65.5L176.1,65.5z M178,62c0.1-0.6,0.4-1.2,0.7-1.7
		c0.3-0.3,0.6-0.4,1-0.4c0.4,0,0.7,0.1,0.9,0.4c0.3,0.4,0.4,0.8,0.4,1.3c0,0.7-0.1,1.5-0.3,2.2c-0.1,0.4-0.3,0.8-0.5,1.2
		c-0.1,0.3-0.3,0.5-0.6,0.7c-0.2,0.1-0.5,0.2-0.7,0.2c-0.4,0-0.7-0.1-1-0.4c-0.3-0.4-0.4-0.8-0.3-1.3C177.6,63.5,177.7,62.7,178,62
		L178,62z M184.7,60.3h1l-1.1,5.5c-0.2,1-0.4,2-0.7,3c-0.1,0.2-0.2,0.4-0.3,0.5c-0.1,0.1-0.2,0.1-0.4,0.1c-0.1,0-0.3-0.1-0.4-0.2
		c-0.1-0.1-0.3-0.3-0.3-0.5h-0.2c-0.1,0.3-0.1,0.5-0.2,0.7c-0.1,0.2-0.2,0.5-0.3,0.9c0.2,0.1,0.3,0.1,0.5,0.1c0.3,0,0.5-0.1,0.7-0.2
		c0.5-0.3,1-0.7,1.4-1.2c0.5-0.5,0.8-1.2,1.1-1.8c0.4-1.1,0.7-2.3,1-3.4l0.8-3.5h1.9c0.1-0.3,0.1-0.5,0.2-0.8l-0.1-0.1
		c-0.2,0-0.5,0.1-0.7,0.1c-0.5,0-0.9,0-1,0h-0.1c0.1-0.7,0.3-1.3,0.4-2c0-0.2,0.1-0.4,0.2-0.5c0.1-0.1,0.2-0.2,0.3-0.3
		c0.1-0.1,0.2-0.1,0.4-0.1c0.2,0,0.4,0.1,0.5,0.2c0.2,0.2,0.4,0.4,0.6,0.7h0.2c0.1-0.6,0.2-1.3,0.4-1.9c-0.2-0.1-0.4-0.1-0.6-0.1
		c-0.2,0-0.5,0-0.7,0.1c-0.4,0.2-0.7,0.4-1,0.7c-0.5,0.4-1,0.7-1.4,1.2c-0.2,0.2-0.4,0.5-0.6,0.8c-0.1,0.3-0.2,0.6-0.3,0.9
		c0,0.2-0.1,0.3-0.1,0.4c-0.3,0.1-0.5,0.2-0.8,0.3c-0.3,0.1-0.6,0.2-0.7,0.2l-0.1,0.4L184.7,60.3L184.7,60.3z M83.1,76.8h-1.3
		c0,0.6,0,1.1-0.2,1.7c0,0.2-0.1,0.3-0.3,0.3C80.5,79,79.7,79,78.8,79c-0.5,0-1.3,0-2.6-0.1v-2.1c0-2.6,0.1-4.4,0.2-5.4l1.6-0.1h1.4
		c0.8,0,1.6,0,2.3,0.2c0.4,0,0.9,0.2,1.3,0.3c0.1,0,0.1,0.1,0.1,0.2c0.1,0.3,0.1,0.5,0.1,0.8c0.1,0.8,0.1,1.3,0.1,1.6h1.2
		c0-0.7,0-1.4,0.1-2.3c0.1-0.9,0.2-1.6,0.3-2.2l-0.1-0.2c-1-0.1-1.9-0.2-2.9-0.2l-7.3,0.1l-5.3-0.1v1.3c0.6,0,1.2,0.1,1.8,0.2
		c0.2,0,0.3,0.1,0.4,0.2c0.1,0.1,0.1,0.2,0.1,0.3c0.1,0.5,0.2,1.1,0.2,1.7c0.1,2.7,0.1,4.1,0.1,4.2v6.2c0,0.5,0,1.4-0.1,2.6
		s-0.1,2-0.1,2.2c0,0.3-0.1,0.5-0.2,0.8c-0.1,0.1-0.1,0.1-0.2,0.2c-0.7,0.1-1.3,0.2-2,0.2v1.3c1.9-0.1,3.2-0.1,4.1-0.1l5.9,0.1v-1.2
		c-0.8,0-1.6-0.1-2.4-0.3c-0.2,0-0.3-0.1-0.4-0.3c-0.2-0.5-0.2-1.1-0.2-1.7c-0.1-1-0.1-2.6-0.1-5v-1.7h1.2c1.2,0,2.4,0,3.5,0.2
		c0.2,0,0.4,0.1,0.5,0.3c0.2,0.7,0.3,1.5,0.3,2.3h1.3L83.1,76.8z M91.5,90.5c0.7,0,1.8,0,3.5,0.1l3.6,0.1c1.3,0,2.2,0,2.9-0.1
		c0.3,0,0.6-0.1,0.9-0.1c0-0.2,0-0.8,0.1-1.7l0.4-3.1v-0.5h-1.2c-0.2,1-0.4,1.8-0.6,2.6c0,0.2-0.1,0.4-0.3,0.6
		c-0.2,0.1-0.5,0.2-0.7,0.2c-1.3,0.2-2.7,0.3-4,0.3c-0.5,0-1.5,0-2.8-0.1v-2.6v-4.3v-4.4c0-1.7,0-3.1,0.1-4.2c0-0.6,0-1.3,0.1-1.9
		c0-0.1,0.1-0.2,0.2-0.3c0.7-0.2,1.4-0.3,2.1-0.3v-1.4c-1.6,0.1-3.4,0.1-5.2,0.1c-1.6,0-3.1,0-4.4-0.1v1.3c0.8,0,1.6,0.1,2.3,0.3
		c0.1,0.1,0.2,0.2,0.2,0.3c0.2,1.1,0.2,2.2,0.2,3.3v5.9c0,2.2,0,4-0.1,5.6s-0.1,2.4-0.1,2.7c0,0.1,0,0.1-0.1,0.2
		c-0.1,0.1-0.3,0.2-0.4,0.3c-0.4,0.2-0.7,0.4-1.1,0.6v0.8C89,90.6,90.5,90.5,91.5,90.5L91.5,90.5z M104.6,86.3
		c0.9,1.6,2.2,2.8,3.8,3.6c1.8,0.9,3.8,1.3,5.8,1.2c1.9,0,3.8-0.3,5.6-1c1.2-0.5,2.3-1.2,3.2-2.2c0.9-0.9,1.6-2,2.1-3.2
		c0.7-1.7,1-3.5,1-5.3c0-1-0.1-2.1-0.4-3.1c-0.2-0.9-0.5-1.8-1-2.6c-1.1-1.9-2.9-3.3-4.9-4c-1.6-0.5-3.3-0.8-5-0.8
		c-1.7,0-3.5,0.3-5.1,0.8c-2.6,0.9-4.7,3-5.8,5.5c-0.6,1.5-0.9,3.2-0.8,4.8C103.1,82.4,103.6,84.5,104.6,86.3L104.6,86.3z M108.6,75
		c0.4-1.2,1.2-2.3,2.3-3.1c1.1-0.7,2.4-1.1,3.8-1c1.1,0,2.1,0.2,3.1,0.7c0.8,0.5,1.5,1.1,2,1.9c0.6,0.9,1.1,1.9,1.3,3
		c0.3,1.3,0.5,2.6,0.5,3.9c0,1.8-0.2,3.6-0.8,5.3c-0.4,1.2-1.2,2.3-2.3,3c-1,0.6-2.2,0.9-3.4,0.9c-1.3,0-2.5-0.3-3.6-1
		c-1.1-0.8-2-2-2.5-3.3c-0.7-1.9-1.1-3.9-1-5.9C107.8,77.9,108.1,76.4,108.6,75L108.6,75z M128.3,71.1c0.1,0.1,0.2,0.2,0.2,0.3
		c0.1,0.7,0.2,1.5,0.2,2.3l0.1,3.2v5.6l-0.1,4.4c0,0.6-0.1,1.2-0.2,1.8c0,0.1-0.1,0.3-0.1,0.4c-0.1,0.1-0.2,0.1-0.3,0.2
		c-0.7,0.1-1.3,0.2-2,0.2v1.3c1.3-0.1,2.8-0.1,4.4-0.1c1.8,0,3.5,0,5.2,0.1v-1.3c-0.6,0-1.2,0-1.8-0.1c-0.2,0-0.3-0.1-0.4-0.2
		c-0.1-0.1-0.2-0.1-0.2-0.2c-0.1-0.4-0.2-0.7-0.2-1.1c0-0.3,0-1.5-0.1-3.5v-4.8c0-1,0-2.9,0.1-5.7c0-1.3,0-2.1,0.1-2.5
		c0.5-0.1,1-0.1,1.4-0.1c0.8,0,1.5,0,2.3,0.2c0.7,0.3,1.2,0.7,1.6,1.3c0.5,0.7,0.7,1.5,0.7,2.3c0,0.9-0.2,1.7-0.6,2.5
		c-0.3,0.7-0.9,1.2-1.6,1.5c-0.9,0.3-1.8,0.5-2.7,0.4l-0.2,0.5c0.4,0.3,0.7,0.6,0.9,1c0.7,0.9,1.5,2.1,2.4,3.6l3.2,5.3
		c0.2,0.3,0.3,0.6,0.4,0.9c0.8,0,1.6-0.1,2.4-0.1c0.7,0,1.8,0,3.4,0.1v-1.3c-0.3,0-0.7,0-1-0.1c-0.2-0.1-0.4-0.2-0.5-0.4
		c-0.2-0.2-0.6-0.8-1.4-1.8l-1-1.5l-2.4-3.5l-0.2-0.3c-0.1-0.1-0.2-0.4-0.6-0.9s-0.6-0.9-0.9-1.4c1.4-0.4,2.6-1.3,3.5-2.4
		c0.7-1,1.1-2.1,1.1-3.3c0-0.9-0.3-1.9-0.8-2.6c-0.5-0.7-1.2-1.2-2-1.4c-1.2-0.3-2.4-0.4-3.6-0.3c-0.8,0-1.9,0-3.1,0.1
		c-0.8,0-1.7,0.1-2.7,0.1h-2.9l-2.4-0.1v1.2C126.9,70.8,127.7,70.9,128.3,71.1L128.3,71.1z M152.5,69.6c-1.6,0-3.1,0-4.4-0.1v1.3
		c0.6,0,1.3,0,1.9,0.1c0.1,0,0.3,0.1,0.4,0.2c0.1,0.1,0.1,0.2,0.1,0.3c0.1,0.8,0.2,1.6,0.2,2.4V84c0,1,0,2.2-0.1,3.4
		c-0.1,0.8-0.1,1.3-0.1,1.4c0,0.1-0.1,0.2-0.1,0.2c-0.1,0.1-0.3,0.2-0.4,0.2c-0.2,0-0.8,0-1.8,0.1v1.3c1.4-0.1,2.9-0.1,4.4-0.1
		c1.9,0,3.6,0,5.3,0.1v-1.3c-0.6,0-1.2,0-1.8-0.1c-0.2,0-0.3-0.1-0.5-0.2c-0.1-0.1-0.2-0.2-0.2-0.3c-0.1-0.7-0.2-1.3-0.1-2v-8.9
		c0-0.2,0-1.5,0.1-4v-1.5c0-0.3,0.1-0.7,0.1-1c0-0.1,0.1-0.2,0.2-0.3c0.1-0.1,0.3-0.1,0.4-0.2c0.6-0.1,1.2-0.1,1.8-0.1v-1.4
		C156,69.5,154.3,69.6,152.5,69.6L152.5,69.6z M164.2,90.6l4.5,0.1c1.8,0,3.5-0.2,5.2-0.7c1.5-0.5,2.8-1.2,4-2.2
		c1.2-1,2.2-2.3,2.9-3.8c0.7-1.6,1.1-3.4,1.1-5.2c0-1.4-0.2-2.8-0.7-4.2c-0.3-0.8-0.7-1.5-1.3-2.1c-0.6-0.7-1.2-1.2-2-1.7
		c-0.9-0.5-1.8-0.8-2.8-1c-1.4-0.2-2.9-0.4-4.3-0.3c-0.8,0-1.8,0-3.1,0.1c-1.8,0.1-3,0.1-3.6,0.1l-5.4-0.2v1.2
		c1.1,0.1,1.7,0.2,1.9,0.3c0.1,0,0.3,0.1,0.4,0.2c0.1,0.1,0.1,0.1,0.1,0.2c0.1,0.9,0.2,1.8,0.2,2.7c0.1,2.6,0.1,4.5,0.1,5.9v2.5
		c0,3-0.1,5.2-0.2,6.6c-0.3,0.2-0.7,0.5-1,0.7l-0.4,0.2v0.7L164.2,90.6L164.2,90.6z M165.5,82.9v-3.5c0-4,0.1-6.7,0.2-8.1
		c0.9-0.1,1.7-0.2,2.6-0.2c1.6-0.1,3.1,0.1,4.6,0.5c1,0.3,1.9,1,2.5,1.8c0.7,0.8,1.2,1.8,1.4,2.8c0.3,1.1,0.4,2.2,0.4,3.3
		c0,1.2-0.1,2.4-0.4,3.5c-0.3,1-0.7,2-1.2,2.8c-0.4,0.7-1,1.3-1.7,1.8c-0.6,0.4-1.3,0.7-2,0.9c-1.2,0.3-2.4,0.4-3.6,0.4
		c-0.9,0-1.8-0.1-2.7-0.2C165.6,87.9,165.5,85.9,165.5,82.9L165.5,82.9z M182.7,90.6l3.5,0.1v-1.3c-0.7,0-1.5-0.1-2.2-0.3
		c-0.2-0.1-0.3-0.3-0.2-0.5c0.1-0.9,0.4-1.8,0.8-2.6l0.7-1.8h7.8l1.4,3.3c0.2,0.4,0.3,0.8,0.4,1.2c0,0.2-0.1,0.3-0.2,0.4
		c-0.7,0.2-1.4,0.2-2.1,0.2v1.3l5.3-0.1l4.2,0.1v-1.3l-0.7-0.1c-0.3,0-0.6,0-0.9-0.1c-0.1,0-0.2-0.1-0.3-0.2
		c-0.1-0.1-0.2-0.2-0.3-0.4l-0.6-1.4l-0.9-2.1l-6.7-15.8h-2.2l-1.3,3.4l-3.9,9.8c-0.5,1.2-1,2.5-1.5,3.7c-0.3,0.8-0.7,1.5-1,2.3
		c-0.1,0.2-0.2,0.3-0.3,0.5c-0.1,0.1-0.3,0.2-0.4,0.2c-0.5,0.1-1,0.1-1.5,0.2v1.3L182.7,90.6L182.7,90.6z M189,74.7l3.2,7.8h-6.4
		L189,74.7L189,74.7z M70.1,57.3c0.1,0,0.2,0.1,0.2,0.2c0,0.1,0.1,0.3,0.1,0.4v5.7c0.1,0.6,0.4,1.1,0.8,1.5c0.3,0.2,0.6,0.4,1,0.5
		c0.6,0.2,1.2,0.3,1.8,0.3c0.5,0,1-0.1,1.4-0.2c0.4-0.1,0.8-0.3,1.1-0.5c0.3-0.2,0.6-0.5,0.7-0.8c0.2-0.3,0.3-0.6,0.3-1
		c0.1-0.4,0.1-0.8,0.1-1.2v-1.5v-1.8c0-0.4,0-0.9,0.1-1.3c0-0.1,0.1-0.1,0.1-0.2c0.2-0.1,0.5-0.1,0.7-0.1v-0.5l-1.4,0h-1.6v0.5
		c0.3,0,0.6,0,0.9,0.1c0.1,0,0.1,0.1,0.2,0.1c0.1,0.3,0.1,0.7,0.1,1v3.3c0,0.6,0,1.2-0.2,1.8c-0.2,0.3-0.4,0.6-0.8,0.8
		c-0.4,0.2-0.9,0.3-1.4,0.3c-0.4,0-0.8-0.1-1.2-0.2c-0.3-0.1-0.6-0.3-0.7-0.6c-0.2-0.3-0.3-0.6-0.3-1v-3.6c0-0.6,0-1.2,0-1.7
		c0-0.1,0.1-0.2,0.1-0.2c0.3-0.1,0.6-0.1,0.9-0.1v-0.5h-1.1l-0.9,0l-2,0v0.5L70.1,57.3L70.1,57.3z M81.4,65.5h3.1V65h-0.1
		c-0.2,0-0.4,0-0.6-0.1c-0.1,0-0.1,0-0.2-0.1c0,0-0.1-0.1-0.1-0.1c-0.1-0.3-0.1-0.6-0.1-0.9v-5.2c2.5,3.1,4.4,5.4,5.8,6.9l1.1,0.2
		l0.1,0c-0.1-0.6-0.1-2.3-0.1-5.1v-1.7c0-0.5,0-1,0.1-1.5c0,0,0-0.1,0.1-0.1c0.3-0.1,0.6-0.1,0.9-0.1v-0.5h-3v0.5c0.3,0,0.7,0,1,0.1
		c0.1,0.1,0.1,0.2,0.1,0.3c0.1,0.4,0.1,1.7,0.1,4v1.5c-0.6-0.6-1.3-1.4-2.2-2.5c-1.1-1.3-2.2-2.6-3.2-3.9h-2.7v0.5
		c0.3,0,0.5,0,0.8,0.1c0.1,0,0.1,0,0.2,0.1c0,0.1,0.1,0.1,0.1,0.2c0,0.2,0,0.4,0,0.6v5.2c0,0.6-0.1,1-0.1,1.2c0,0.1,0,0.2-0.1,0.2
		c0,0-0.1,0.1-0.1,0.1c-0.3,0-0.6,0.1-0.9,0.1L81.4,65.5L81.4,65.5z M96,56.7h-1.8v0.5c0.3,0,0.5,0,0.8,0c0.1,0,0.1,0,0.2,0.1
		c0,0,0.1,0.1,0.1,0.1c0.1,0.3,0.1,0.7,0.1,1v4.3c0,0.4,0,0.9-0.1,1.4v0.6c0,0,0,0.1-0.1,0.1c-0.1,0-0.1,0.1-0.2,0.1h-0.8v0.6h4V65
		c-0.3,0-0.5,0-0.8,0c-0.1,0-0.2-0.1-0.2-0.1c0,0-0.1-0.1-0.1-0.1c-0.1-0.3-0.1-0.6-0.1-0.9v-3.7v-1.7v-0.6c0-0.1,0-0.3,0.1-0.4
		c0-0.1,0.1-0.1,0.1-0.1c0.1,0,0.1-0.1,0.2-0.1c0.3,0,0.5,0,0.8,0v-0.6L96,56.7L96,56.7z M106.2,65.6c0.3-0.7,0.8-2,1.5-3.7l0.9-2
		l0.4-1c0.2-0.5,0.4-1,0.7-1.4c0.2-0.1,0.5-0.1,0.7-0.1v-0.6h-3v0.6h0.9c0,0,0.1,0,0.1,0.1c0,0.1,0,0.1,0,0.2c0,0,0,0.1,0,0.2
		c0,0.2-0.2,0.5-0.3,1c-0.1,0.4-0.3,0.8-0.4,1.2l-1.4,3.5l-1.6-3.8v-0.1l-0.3-0.6c-0.2-0.4-0.3-0.8-0.4-1.2c0-0.1,0-0.1,0.1-0.2
		c0.1,0,0.1-0.1,0.2-0.1c0.3,0,0.5-0.1,0.8-0.1v-0.5h-4.1v0.6c0.3,0,0.5,0,0.8,0.1c0.2,0.2,0.3,0.3,0.4,0.6c0.2,0.3,0.6,1.3,1.3,3
		l0.9,2.2l1,2.5L106.2,65.6L106.2,65.6z M115.3,65.5h3.1c0.4,0,0.8,0,1.2,0l0.1-0.1c0-0.7,0.1-1.4,0.1-2.1h-0.4
		c0,0.4-0.1,0.8-0.2,1.1c0,0,0,0.1-0.1,0.1c-0.2,0.1-0.5,0.1-0.7,0.1h-2.5v-3.4c0.3,0,0.7,0,1,0c0.4,0,0.8,0,1.1,0.1
		c0.1,0,0.2,0.1,0.3,0.2c0.1,0.3,0.1,0.6,0.1,0.9h0.5v-2.8h-0.5c0,0.3,0,0.5-0.1,0.8c0,0.1,0,0.1-0.1,0.1c-0.1,0-0.3,0-0.4,0h-1.9
		v-1.3c0-0.6,0-1.2,0.1-1.8h1.2c0.4,0,0.8,0,1.2,0.1c0.2,0,0.3,0,0.5,0.1c0,0,0.1,0.1,0.1,0.1c0,0.3,0.1,0.6,0.1,0.9h0.5l0.1-0.9
		l0.1-0.9v-0.1l-0.3-0.1h-6.5v0.5c0.3,0,0.6,0,0.9,0.1c0,0,0.1,0.1,0.1,0.1c0.1,0.3,0.1,0.6,0.1,0.9v4.1c0,0.3,0,0.9-0.1,1.6
		c0,0.4,0,0.7-0.1,0.9c-0.2,0.1-0.4,0.3-0.6,0.4v0.3L115.3,65.5z M123.7,57.3c0,0,0.1,0.1,0.1,0.1c0.1,0.3,0.1,0.7,0.1,1v3.7
		l-0.1,1.8c0,0.3,0,0.5-0.1,0.8c0,0.1,0,0.1-0.1,0.2c0,0-0.1,0.1-0.1,0.1c-0.3,0-0.6,0.1-0.8,0.1v0.6h4V65c-0.2,0-0.5,0-0.7,0
		c-0.1,0-0.1,0-0.2-0.1c0,0-0.1-0.1-0.1-0.1c0-0.1-0.1-0.3-0.1-0.5v-1.5v-2v-2.4v-1c0.2,0,0.4-0.1,0.6,0c0.3,0,0.7,0,1,0.1
		c0.3,0.1,0.5,0.3,0.7,0.5c0.2,0.3,0.3,0.6,0.3,1c0,0.4-0.1,0.7-0.3,1c-0.1,0.3-0.4,0.5-0.7,0.6c-0.4,0.1-0.8,0.2-1.2,0.2l-0.1,0.2
		c0.2,0.1,0.3,0.3,0.4,0.4c0.3,0.4,0.6,0.9,1,1.5l1.4,2.2c0.1,0.1,0.1,0.2,0.1,0.4h2.4V65c-0.1,0-0.3,0-0.4,0
		c-0.1,0-0.2-0.1-0.2-0.2c-0.1-0.1-0.3-0.3-0.6-0.7l-0.4-0.6l-1-1.5l-0.1-0.1l-0.2-0.3c-0.1-0.2-0.3-0.4-0.4-0.6
		c0.6-0.2,1.1-0.5,1.5-1c0.3-0.4,0.5-0.9,0.5-1.4c0-0.4-0.1-0.8-0.3-1.1c-0.2-0.3-0.5-0.5-0.8-0.6c-0.5-0.1-1-0.2-1.5-0.1h-4.7v0.5
		C123.1,57.2,123.4,57.2,123.7,57.3L123.7,57.3z M140.1,57.9c0-0.3,0.1-0.5,0.1-0.8l-0.1-0.2c-0.3-0.2-0.7-0.3-1.1-0.3
		c-0.4-0.1-0.9-0.1-1.3-0.1c-0.4,0-0.8,0-1.3,0.1c-0.4,0.1-0.8,0.2-1.1,0.5c-0.3,0.2-0.6,0.6-0.8,0.9c-0.2,0.4-0.3,0.9-0.3,1.3
		c0,0.3,0.1,0.6,0.2,0.9c0.1,0.3,0.3,0.5,0.5,0.8c0.3,0.2,0.6,0.4,0.9,0.5c0.2,0.1,0.7,0.2,1.5,0.3c0.4,0.1,0.8,0.2,1.1,0.4
		c0.2,0.1,0.4,0.3,0.5,0.5c0.1,0.2,0.2,0.5,0.1,0.7c0,0.3-0.1,0.6-0.2,0.9c-0.2,0.3-0.4,0.5-0.7,0.6c-0.3,0.1-0.7,0.2-1.1,0.2
		c-0.4,0-0.9-0.1-1.3-0.3c-0.3-0.1-0.6-0.4-0.8-0.7c-0.1-0.4-0.1-0.8-0.1-1.1h-0.5c0,0.7,0,1.5-0.2,2.2c0.4,0.2,0.9,0.4,1.3,0.5
		c0.5,0.1,0.9,0.2,1.4,0.2c0.6,0,1.2-0.1,1.8-0.3c0.3-0.1,0.7-0.3,0.9-0.6c0.3-0.2,0.5-0.5,0.7-0.9c0.2-0.4,0.4-0.9,0.3-1.4
		c0-0.3,0-0.6-0.1-0.8c-0.1-0.2-0.2-0.4-0.3-0.6c-0.1-0.2-0.3-0.3-0.5-0.4c-0.3-0.1-0.5-0.3-0.8-0.3l-0.9-0.2l-1-0.2
		c-0.3-0.1-0.5-0.2-0.7-0.3c-0.2-0.1-0.3-0.2-0.4-0.4c-0.1-0.2-0.1-0.4-0.1-0.7c0-0.4,0.2-0.7,0.5-1c0.4-0.3,0.9-0.5,1.3-0.4
		c0.4,0,0.7,0.1,1.1,0.2c0.3,0.1,0.5,0.3,0.7,0.5c0,0.3,0.1,0.7,0.1,1h0.5C140.1,58.5,140.1,58.2,140.1,57.9L140.1,57.9z
		 M145.7,56.7h-1.8v0.5c0.3,0,0.5,0,0.8,0c0.1,0,0.1,0,0.1,0.1c0,0,0.1,0.1,0.1,0.1c0,0.3,0.1,0.7,0.1,1v4.3c0,0.4,0,0.9-0.1,1.4
		v0.6c0,0,0,0.1-0.1,0.1c-0.1,0-0.1,0.1-0.2,0.1h-0.8v0.6h4V65c-0.3,0-0.5,0-0.8,0c-0.1,0-0.1,0-0.2-0.1c0,0-0.1-0.1-0.1-0.1
		c-0.1-0.3-0.1-0.6-0.1-0.9v-3.8v-1.7v-0.6c0-0.1,0-0.3,0.1-0.4c0,0,0-0.1,0.1-0.1c0.1,0,0.1-0.1,0.2-0.1c0.3,0,0.5,0,0.8,0v-0.6
		L145.7,56.7L145.7,56.7z M154.5,65.5c0.6,0,1.3,0,2.1,0.1V65c-0.3,0-0.6,0-0.9-0.1c-0.1,0-0.2-0.1-0.2-0.2
		c-0.1-0.5-0.1-1.1-0.1-1.6v-3.8v-1.7h0.9c0.5,0,0.9,0,1.3,0c0.1,0,0.1,0,0.2,0c0,0.1,0.1,0.2,0.1,0.3c0,0.3,0.1,0.6,0.1,0.9h0.5
		v-1.4c0-0.2,0-0.5,0.1-0.7l-0.1-0.1h-8l-0.1,0.1c0,0.2,0,0.4,0.1,0.6s0,0.7,0,1.5h0.5c0-0.3,0-0.7,0.1-1c0-0.1,0-0.2,0.1-0.2
		c0.1,0,0.2-0.1,0.2,0h2.1V63c0,0.5,0,1.1-0.1,1.6c0,0.1-0.1,0.2-0.2,0.3c-0.3,0.1-0.6,0.1-0.9,0.1v0.5
		C153.2,65.5,153.9,65.5,154.5,65.5L154.5,65.5z M164.9,59.1c-0.3-0.5-0.6-1.1-0.9-1.6c-0.1-0.2-0.3-0.4-0.5-0.6
		c-0.2-0.2-0.4-0.3-0.6-0.4l-0.7,0.2l-1.4,0.3v0.6c0.2,0,0.4,0,0.6,0c0.2,0.1,0.3,0.3,0.4,0.4c0.4,0.4,0.7,0.9,1,1.4
		c0.5,0.7,0.9,1.4,1.3,2.2c0.1,0.2,0.2,0.4,0.2,0.6v2.4c0,0.1,0,0.3-0.1,0.4c0,0.1-0.1,0.1-0.2,0.1c-0.3,0-0.6,0.1-0.9,0.1v0.6h4.1
		V65c-0.3,0-0.6,0-0.8-0.1c-0.1,0-0.1-0.1-0.2-0.1c-0.1-0.1-0.1-0.3-0.1-0.4c0-0.4,0-0.8,0-1.2v-1.1c0-0.2,0-0.3,0-0.5
		c0-0.2,0.1-0.3,0.2-0.5c0.1-0.3,0.5-0.9,1.1-1.8s1.2-1.7,1.7-2.4v-0.3h-1c-0.1,0.1-0.2,0.4-0.4,0.8l-1.2,2.1l-0.8,1.3
		C165.8,60.6,165.5,60.1,164.9,59.1L164.9,59.1z"/>
	<g>
		<path class="st0" d="M43.2,84.8v-8.7h8v-5.7h-8v-8.1H52v3.1h5.8v-8.8H34.6v5.7h2.2v22.5h-2.2v5.7h10.7v-5.7L43.2,84.8z M31.6,77.8
			V62.4h2.1v-5.7H23v5.7h2.1v13.5c0,5.7-0.6,8.4-4.7,8.4s-4.7-2.8-4.7-8.4V62.4h2.1v-5.7H7v5.7h2.1v15.4c0,3.4,0,6.1,1.6,8.6
			c1.8,2.8,5,4.6,9.7,4.6C28.7,90.9,31.6,86.6,31.6,77.8z M63.1,56.7v33.9h1.5V56.7H63.1z"/>
		<path class="st0" d="M176.1,65.5c0.1,0.4,0.4,0.7,0.7,0.8c0.4,0.2,0.9,0.3,1.4,0.3c0.5,0,0.9-0.1,1.3-0.2c0.4-0.2,0.8-0.4,1.2-0.7
			c0.3-0.2,0.7-0.5,0.9-0.8c0.3-0.4,0.6-0.9,0.7-1.5c0.2-0.6,0.3-1.3,0.3-1.9c0-0.3,0-0.6-0.1-0.9c-0.1-0.3-0.2-0.5-0.4-0.7
			c-0.2-0.2-0.5-0.4-0.8-0.5c-0.4-0.1-0.8-0.2-1.1-0.2c-0.5,0-1,0.1-1.4,0.3c-0.4,0.2-0.9,0.4-1.2,0.7c-0.3,0.2-0.5,0.4-0.8,0.7
			c-0.3,0.4-0.5,0.9-0.7,1.4c-0.2,0.6-0.3,1.2-0.3,1.9C175.9,64.7,176,65.1,176.1,65.5L176.1,65.5z M178,62c0.1-0.6,0.4-1.2,0.7-1.7
			c0.3-0.3,0.6-0.4,1-0.4c0.4,0,0.7,0.1,0.9,0.4c0.3,0.4,0.4,0.8,0.4,1.3c0,0.7-0.1,1.5-0.3,2.2c-0.1,0.4-0.3,0.8-0.5,1.2
			c-0.1,0.3-0.3,0.5-0.6,0.7c-0.2,0.1-0.5,0.2-0.7,0.2c-0.4,0-0.7-0.1-1-0.4c-0.3-0.4-0.4-0.8-0.3-1.3C177.6,63.5,177.7,62.7,178,62
			L178,62z M184.7,60.3h1l-1.1,5.5c-0.2,1-0.4,2-0.7,3c-0.1,0.2-0.2,0.4-0.3,0.5c-0.1,0.1-0.2,0.1-0.4,0.1c-0.1,0-0.3-0.1-0.4-0.2
			c-0.1-0.1-0.3-0.3-0.3-0.5h-0.2c-0.1,0.3-0.1,0.5-0.2,0.7c-0.1,0.2-0.2,0.5-0.3,0.9c0.2,0.1,0.3,0.1,0.5,0.1
			c0.3,0,0.5-0.1,0.7-0.2c0.5-0.3,1-0.7,1.4-1.2c0.5-0.5,0.8-1.2,1.1-1.8c0.4-1.1,0.7-2.3,1-3.4l0.8-3.5h1.9
			c0.1-0.3,0.1-0.5,0.2-0.8l-0.1-0.1c-0.2,0-0.5,0.1-0.7,0.1c-0.5,0-0.9,0-1,0h-0.1c0.1-0.7,0.3-1.3,0.4-2c0-0.2,0.1-0.4,0.2-0.5
			c0.1-0.1,0.2-0.2,0.3-0.3c0.1-0.1,0.2-0.1,0.4-0.1c0.2,0,0.4,0.1,0.5,0.2c0.2,0.2,0.4,0.4,0.6,0.7h0.2c0.1-0.6,0.2-1.3,0.4-1.9
			c-0.2-0.1-0.4-0.1-0.6-0.1c-0.2,0-0.5,0-0.7,0.1c-0.4,0.2-0.7,0.4-1,0.7c-0.5,0.4-1,0.7-1.4,1.2c-0.2,0.2-0.4,0.5-0.6,0.8
			c-0.1,0.3-0.2,0.6-0.3,0.9c0,0.2-0.1,0.3-0.1,0.4c-0.3,0.1-0.5,0.2-0.8,0.3c-0.3,0.1-0.6,0.2-0.7,0.2l-0.1,0.4L184.7,60.3
			L184.7,60.3z M83.1,76.8h-1.3c0,0.6,0,1.1-0.2,1.7c0,0.2-0.1,0.3-0.3,0.3C80.5,79,79.7,79,78.8,79c-0.5,0-1.3,0-2.6-0.1v-2.1
			c0-2.6,0.1-4.4,0.2-5.4l1.6-0.1h1.4c0.8,0,1.6,0,2.3,0.2c0.4,0,0.9,0.2,1.3,0.3c0.1,0,0.1,0.1,0.1,0.2c0.1,0.3,0.1,0.5,0.1,0.8
			c0.1,0.8,0.1,1.3,0.1,1.6h1.2c0-0.7,0-1.4,0.1-2.3c0.1-0.9,0.2-1.6,0.3-2.2l-0.1-0.2c-1-0.1-1.9-0.2-2.9-0.2l-7.3,0.1l-5.3-0.1
			v1.3c0.6,0,1.2,0.1,1.8,0.2c0.2,0,0.3,0.1,0.4,0.2c0.1,0.1,0.1,0.2,0.1,0.3c0.1,0.5,0.2,1.1,0.2,1.7c0.1,2.7,0.1,4.1,0.1,4.2v6.2
			c0,0.5,0,1.4-0.1,2.6s-0.1,2-0.1,2.2c0,0.3-0.1,0.5-0.2,0.8c-0.1,0.1-0.1,0.1-0.2,0.2c-0.7,0.1-1.3,0.2-2,0.2v1.3
			c1.9-0.1,3.2-0.1,4.1-0.1l5.9,0.1v-1.2c-0.8,0-1.6-0.1-2.4-0.3c-0.2,0-0.3-0.1-0.4-0.3c-0.2-0.5-0.2-1.1-0.2-1.7
			c-0.1-1-0.1-2.6-0.1-5v-1.7h1.2c1.2,0,2.4,0,3.5,0.2c0.2,0,0.4,0.1,0.5,0.3c0.2,0.7,0.3,1.5,0.3,2.3h1.3L83.1,76.8z M91.5,90.5
			c0.7,0,1.8,0,3.5,0.1l3.6,0.1c1.3,0,2.2,0,2.9-0.1c0.3,0,0.6-0.1,0.9-0.1c0-0.2,0-0.8,0.1-1.7l0.4-3.1v-0.5h-1.2
			c-0.2,1-0.4,1.8-0.6,2.6c0,0.2-0.1,0.4-0.3,0.6c-0.2,0.1-0.5,0.2-0.7,0.2c-1.3,0.2-2.7,0.3-4,0.3c-0.5,0-1.5,0-2.8-0.1v-2.6v-4.3
			v-4.4c0-1.7,0-3.1,0.1-4.2c0-0.6,0-1.3,0.1-1.9c0-0.1,0.1-0.2,0.2-0.3c0.7-0.2,1.4-0.3,2.1-0.3v-1.4c-1.6,0.1-3.4,0.1-5.2,0.1
			c-1.6,0-3.1,0-4.4-0.1v1.3c0.8,0,1.6,0.1,2.3,0.3c0.1,0.1,0.2,0.2,0.2,0.3c0.2,1.1,0.2,2.2,0.2,3.3v5.9c0,2.2,0,4-0.1,5.6
			s-0.1,2.4-0.1,2.7c0,0.1,0,0.1-0.1,0.2c-0.1,0.1-0.3,0.2-0.4,0.3c-0.4,0.2-0.7,0.4-1.1,0.6v0.8C89,90.6,90.5,90.5,91.5,90.5
			L91.5,90.5z M104.6,86.3c0.9,1.6,2.2,2.8,3.8,3.6c1.8,0.9,3.8,1.3,5.8,1.2c1.9,0,3.8-0.3,5.6-1c1.2-0.5,2.3-1.2,3.2-2.2
			c0.9-0.9,1.6-2,2.1-3.2c0.7-1.7,1-3.5,1-5.3c0-1-0.1-2.1-0.4-3.1c-0.2-0.9-0.5-1.8-1-2.6c-1.1-1.9-2.9-3.3-4.9-4
			c-1.6-0.5-3.3-0.8-5-0.8c-1.7,0-3.5,0.3-5.1,0.8c-2.6,0.9-4.7,3-5.8,5.5c-0.6,1.5-0.9,3.2-0.8,4.8
			C103.1,82.4,103.6,84.5,104.6,86.3L104.6,86.3z M108.6,75c0.4-1.2,1.2-2.3,2.3-3.1c1.1-0.7,2.4-1.1,3.8-1c1.1,0,2.1,0.2,3.1,0.7
			c0.8,0.5,1.5,1.1,2,1.9c0.6,0.9,1.1,1.9,1.3,3c0.3,1.3,0.5,2.6,0.5,3.9c0,1.8-0.2,3.6-0.8,5.3c-0.4,1.2-1.2,2.3-2.3,3
			c-1,0.6-2.2,0.9-3.4,0.9c-1.3,0-2.5-0.3-3.6-1c-1.1-0.8-2-2-2.5-3.3c-0.7-1.9-1.1-3.9-1-5.9C107.8,77.9,108.1,76.4,108.6,75
			L108.6,75z M128.3,71.1c0.1,0.1,0.2,0.2,0.2,0.3c0.1,0.7,0.2,1.5,0.2,2.3l0.1,3.2v5.6l-0.1,4.4c0,0.6-0.1,1.2-0.2,1.8
			c0,0.1-0.1,0.3-0.1,0.4c-0.1,0.1-0.2,0.1-0.3,0.2c-0.7,0.1-1.3,0.2-2,0.2v1.3c1.3-0.1,2.8-0.1,4.4-0.1c1.8,0,3.5,0,5.2,0.1v-1.3
			c-0.6,0-1.2,0-1.8-0.1c-0.2,0-0.3-0.1-0.4-0.2c-0.1-0.1-0.2-0.1-0.2-0.2c-0.1-0.4-0.2-0.7-0.2-1.1c0-0.3,0-1.5-0.1-3.5v-4.8
			c0-1,0-2.9,0.1-5.7c0-1.3,0-2.1,0.1-2.5c0.5-0.1,1-0.1,1.4-0.1c0.8,0,1.5,0,2.3,0.2c0.7,0.3,1.2,0.7,1.6,1.3
			c0.5,0.7,0.7,1.5,0.7,2.3c0,0.9-0.2,1.7-0.6,2.5c-0.3,0.7-0.9,1.2-1.6,1.5c-0.9,0.3-1.8,0.5-2.7,0.4l-0.2,0.5
			c0.4,0.3,0.7,0.6,0.9,1c0.7,0.9,1.5,2.1,2.4,3.6l3.2,5.3c0.2,0.3,0.3,0.6,0.4,0.9c0.8,0,1.6-0.1,2.4-0.1c0.7,0,1.8,0,3.4,0.1v-1.3
			c-0.3,0-0.7,0-1-0.1c-0.2-0.1-0.4-0.2-0.5-0.4c-0.2-0.2-0.6-0.8-1.4-1.8l-1-1.5l-2.4-3.5l-0.2-0.3c-0.1-0.1-0.2-0.4-0.6-0.9
			s-0.6-0.9-0.9-1.4c1.4-0.4,2.6-1.3,3.5-2.4c0.7-1,1.1-2.1,1.1-3.3c0-0.9-0.3-1.9-0.8-2.6c-0.5-0.7-1.2-1.2-2-1.4
			c-1.2-0.3-2.4-0.4-3.6-0.3c-0.8,0-1.9,0-3.1,0.1c-0.8,0-1.7,0.1-2.7,0.1h-2.9l-2.4-0.1v1.2C126.9,70.8,127.7,70.9,128.3,71.1
			L128.3,71.1z M152.5,69.6c-1.6,0-3.1,0-4.4-0.1v1.3c0.6,0,1.3,0,1.9,0.1c0.1,0,0.3,0.1,0.4,0.2c0.1,0.1,0.1,0.2,0.1,0.3
			c0.1,0.8,0.2,1.6,0.2,2.4V84c0,1,0,2.2-0.1,3.4c-0.1,0.8-0.1,1.3-0.1,1.4c0,0.1-0.1,0.2-0.1,0.2c-0.1,0.1-0.3,0.2-0.4,0.2
			c-0.2,0-0.8,0-1.8,0.1v1.3c1.4-0.1,2.9-0.1,4.4-0.1c1.9,0,3.6,0,5.3,0.1v-1.3c-0.6,0-1.2,0-1.8-0.1c-0.2,0-0.3-0.1-0.5-0.2
			c-0.1-0.1-0.2-0.2-0.2-0.3c-0.1-0.7-0.2-1.3-0.1-2v-8.9c0-0.2,0-1.5,0.1-4v-1.5c0-0.3,0.1-0.7,0.1-1c0-0.1,0.1-0.2,0.2-0.3
			c0.1-0.1,0.3-0.1,0.4-0.2c0.6-0.1,1.2-0.1,1.8-0.1v-1.4C156,69.5,154.3,69.6,152.5,69.6L152.5,69.6z M164.2,90.6l4.5,0.1
			c1.8,0,3.5-0.2,5.2-0.7c1.5-0.5,2.8-1.2,4-2.2c1.2-1,2.2-2.3,2.9-3.8c0.7-1.6,1.1-3.4,1.1-5.2c0-1.4-0.2-2.8-0.7-4.2
			c-0.3-0.8-0.7-1.5-1.3-2.1c-0.6-0.7-1.2-1.2-2-1.7c-0.9-0.5-1.8-0.8-2.8-1c-1.4-0.2-2.9-0.4-4.3-0.3c-0.8,0-1.8,0-3.1,0.1
			c-1.8,0.1-3,0.1-3.6,0.1l-5.4-0.2v1.2c1.1,0.1,1.7,0.2,1.9,0.3c0.1,0,0.3,0.1,0.4,0.2c0.1,0.1,0.1,0.1,0.1,0.2
			c0.1,0.9,0.2,1.8,0.2,2.7c0.1,2.6,0.1,4.5,0.1,5.9v2.5c0,3-0.1,5.2-0.2,6.6c-0.3,0.2-0.7,0.5-1,0.7l-0.4,0.2v0.7L164.2,90.6
			L164.2,90.6z M165.5,82.9v-3.5c0-4,0.1-6.7,0.2-8.1c0.9-0.1,1.7-0.2,2.6-0.2c1.6-0.1,3.1,0.1,4.6,0.5c1,0.3,1.9,1,2.5,1.8
			c0.7,0.8,1.2,1.8,1.4,2.8c0.3,1.1,0.4,2.2,0.4,3.3c0,1.2-0.1,2.4-0.4,3.5c-0.3,1-0.7,2-1.2,2.8c-0.4,0.7-1,1.3-1.7,1.8
			c-0.6,0.4-1.3,0.7-2,0.9c-1.2,0.3-2.4,0.4-3.6,0.4c-0.9,0-1.8-0.1-2.7-0.2C165.6,87.9,165.5,85.9,165.5,82.9L165.5,82.9z
			 M182.7,90.6l3.5,0.1v-1.3c-0.7,0-1.5-0.1-2.2-0.3c-0.2-0.1-0.3-0.3-0.2-0.5c0.1-0.9,0.4-1.8,0.8-2.6l0.7-1.8h7.8l1.4,3.3
			c0.2,0.4,0.3,0.8,0.4,1.2c0,0.2-0.1,0.3-0.2,0.4c-0.7,0.2-1.4,0.2-2.1,0.2v1.3l5.3-0.1l4.2,0.1v-1.3l-0.7-0.1
			c-0.3,0-0.6,0-0.9-0.1c-0.1,0-0.2-0.1-0.3-0.2c-0.1-0.1-0.2-0.2-0.3-0.4l-0.6-1.4l-0.9-2.1l-6.7-15.8h-2.2l-1.3,3.4l-3.9,9.8
			c-0.5,1.2-1,2.5-1.5,3.7c-0.3,0.8-0.7,1.5-1,2.3c-0.1,0.2-0.2,0.3-0.3,0.5c-0.1,0.1-0.3,0.2-0.4,0.2c-0.5,0.1-1,0.1-1.5,0.2v1.3
			L182.7,90.6L182.7,90.6z M189,74.7l3.2,7.8h-6.4L189,74.7L189,74.7z M70.1,57.3c0.1,0,0.2,0.1,0.2,0.2c0,0.1,0.1,0.3,0.1,0.4v5.7
			c0.1,0.6,0.4,1.1,0.8,1.5c0.3,0.2,0.6,0.4,1,0.5c0.6,0.2,1.2,0.3,1.8,0.3c0.5,0,1-0.1,1.4-0.2c0.4-0.1,0.8-0.3,1.1-0.5
			c0.3-0.2,0.6-0.5,0.7-0.8c0.2-0.3,0.3-0.6,0.3-1c0.1-0.4,0.1-0.8,0.1-1.2v-1.5v-1.8c0-0.4,0-0.9,0.1-1.3c0-0.1,0.1-0.1,0.1-0.2
			c0.2-0.1,0.5-0.1,0.7-0.1v-0.5l-1.4,0h-1.6v0.5c0.3,0,0.6,0,0.9,0.1c0.1,0,0.1,0.1,0.2,0.1c0.1,0.3,0.1,0.7,0.1,1v3.3
			c0,0.6,0,1.2-0.2,1.8c-0.2,0.3-0.4,0.6-0.8,0.8c-0.4,0.2-0.9,0.3-1.4,0.3c-0.4,0-0.8-0.1-1.2-0.2c-0.3-0.1-0.6-0.3-0.7-0.6
			c-0.2-0.3-0.3-0.6-0.3-1v-3.6c0-0.6,0-1.2,0-1.7c0-0.1,0.1-0.2,0.1-0.2c0.3-0.1,0.6-0.1,0.9-0.1v-0.5h-1.1l-0.9,0l-2,0v0.5
			L70.1,57.3L70.1,57.3z M81.4,65.5h3.1V65h-0.1c-0.2,0-0.4,0-0.6-0.1c-0.1,0-0.1,0-0.2-0.1c0,0-0.1-0.1-0.1-0.1
			c-0.1-0.3-0.1-0.6-0.1-0.9v-5.2c2.5,3.1,4.4,5.4,5.8,6.9l1.1,0.2l0.1,0c-0.1-0.6-0.1-2.3-0.1-5.1v-1.7c0-0.5,0-1,0.1-1.5
			c0,0,0-0.1,0.1-0.1c0.3-0.1,0.6-0.1,0.9-0.1v-0.5h-3v0.5c0.3,0,0.7,0,1,0.1c0.1,0.1,0.1,0.2,0.1,0.3c0.1,0.4,0.1,1.7,0.1,4v1.5
			c-0.6-0.6-1.3-1.4-2.2-2.5c-1.1-1.3-2.2-2.6-3.2-3.9h-2.7v0.5c0.3,0,0.5,0,0.8,0.1c0.1,0,0.1,0,0.2,0.1c0,0.1,0.1,0.1,0.1,0.2
			c0,0.2,0,0.4,0,0.6v5.2c0,0.6-0.1,1-0.1,1.2c0,0.1,0,0.2-0.1,0.2c0,0-0.1,0.1-0.1,0.1c-0.3,0-0.6,0.1-0.9,0.1L81.4,65.5L81.4,65.5
			z M96,56.7h-1.8v0.5c0.3,0,0.5,0,0.8,0c0.1,0,0.1,0,0.2,0.1c0,0,0.1,0.1,0.1,0.1c0.1,0.3,0.1,0.7,0.1,1v4.3c0,0.4,0,0.9-0.1,1.4
			v0.6c0,0,0,0.1-0.1,0.1c-0.1,0-0.1,0.1-0.2,0.1h-0.8v0.6h4V65c-0.3,0-0.5,0-0.8,0c-0.1,0-0.2-0.1-0.2-0.1c0,0-0.1-0.1-0.1-0.1
			c-0.1-0.3-0.1-0.6-0.1-0.9v-3.7v-1.7v-0.6c0-0.1,0-0.3,0.1-0.4c0-0.1,0.1-0.1,0.1-0.1c0.1,0,0.1-0.1,0.2-0.1c0.3,0,0.5,0,0.8,0
			v-0.6L96,56.7L96,56.7z M106.2,65.6c0.3-0.7,0.8-2,1.5-3.7l0.9-2l0.4-1c0.2-0.5,0.4-1,0.7-1.4c0.2-0.1,0.5-0.1,0.7-0.1v-0.6h-3
			v0.6h0.9c0,0,0.1,0,0.1,0.1c0,0.1,0,0.1,0,0.2c0,0,0,0.1,0,0.2c0,0.2-0.2,0.5-0.3,1c-0.1,0.4-0.3,0.8-0.4,1.2l-1.4,3.5l-1.6-3.8
			v-0.1l-0.3-0.6c-0.2-0.4-0.3-0.8-0.4-1.2c0-0.1,0-0.1,0.1-0.2c0.1,0,0.1-0.1,0.2-0.1c0.3,0,0.5-0.1,0.8-0.1v-0.5h-4.1v0.6
			c0.3,0,0.5,0,0.8,0.1c0.2,0.2,0.3,0.3,0.4,0.6c0.2,0.3,0.6,1.3,1.3,3l0.9,2.2l1,2.5L106.2,65.6L106.2,65.6z M115.3,65.5h3.1
			c0.4,0,0.8,0,1.2,0l0.1-0.1c0-0.7,0.1-1.4,0.1-2.1h-0.4c0,0.4-0.1,0.8-0.2,1.1c0,0,0,0.1-0.1,0.1c-0.2,0.1-0.5,0.1-0.7,0.1h-2.5
			v-3.4c0.3,0,0.7,0,1,0c0.4,0,0.8,0,1.1,0.1c0.1,0,0.2,0.1,0.3,0.2c0.1,0.3,0.1,0.6,0.1,0.9h0.5v-2.8h-0.5c0,0.3,0,0.5-0.1,0.8
			c0,0.1,0,0.1-0.1,0.1c-0.1,0-0.3,0-0.4,0h-1.9v-1.3c0-0.6,0-1.2,0.1-1.8h1.2c0.4,0,0.8,0,1.2,0.1c0.2,0,0.3,0,0.5,0.1
			c0,0,0.1,0.1,0.1,0.1c0,0.3,0.1,0.6,0.1,0.9h0.5l0.1-0.9l0.1-0.9v-0.1l-0.3-0.1h-6.5v0.5c0.3,0,0.6,0,0.9,0.1c0,0,0.1,0.1,0.1,0.1
			c0.1,0.3,0.1,0.6,0.1,0.9v4.1c0,0.3,0,0.9-0.1,1.6c0,0.4,0,0.7-0.1,0.9c-0.2,0.1-0.4,0.3-0.6,0.4v0.3L115.3,65.5z M123.7,57.3
			c0,0,0.1,0.1,0.1,0.1c0.1,0.3,0.1,0.7,0.1,1v3.7l-0.1,1.8c0,0.3,0,0.5-0.1,0.8c0,0.1,0,0.1-0.1,0.2c0,0-0.1,0.1-0.1,0.1
			c-0.3,0-0.6,0.1-0.8,0.1v0.6h4V65c-0.2,0-0.5,0-0.7,0c-0.1,0-0.1,0-0.2-0.1c0,0-0.1-0.1-0.1-0.1c0-0.1-0.1-0.3-0.1-0.5v-1.5v-2
			v-2.4v-1c0.2,0,0.4-0.1,0.6,0c0.3,0,0.7,0,1,0.1c0.3,0.1,0.5,0.3,0.7,0.5c0.2,0.3,0.3,0.6,0.3,1c0,0.4-0.1,0.7-0.3,1
			c-0.1,0.3-0.4,0.5-0.7,0.6c-0.4,0.1-0.8,0.2-1.2,0.2l-0.1,0.2c0.2,0.1,0.3,0.3,0.4,0.4c0.3,0.4,0.6,0.9,1,1.5l1.4,2.2
			c0.1,0.1,0.1,0.2,0.1,0.4h2.4V65c-0.1,0-0.3,0-0.4,0c-0.1,0-0.2-0.1-0.2-0.2c-0.1-0.1-0.3-0.3-0.6-0.7l-0.4-0.6l-1-1.5l-0.1-0.1
			l-0.2-0.3c-0.1-0.2-0.3-0.4-0.4-0.6c0.6-0.2,1.1-0.5,1.5-1c0.3-0.4,0.5-0.9,0.5-1.4c0-0.4-0.1-0.8-0.3-1.1
			c-0.2-0.3-0.5-0.5-0.8-0.6c-0.5-0.1-1-0.2-1.5-0.1h-4.7v0.5C123.1,57.2,123.4,57.2,123.7,57.3L123.7,57.3z M140.1,57.9
			c0-0.3,0.1-0.5,0.1-0.8l-0.1-0.2c-0.3-0.2-0.7-0.3-1.1-0.3c-0.4-0.1-0.9-0.1-1.3-0.1c-0.4,0-0.8,0-1.3,0.1
			c-0.4,0.1-0.8,0.2-1.1,0.5c-0.3,0.2-0.6,0.6-0.8,0.9c-0.2,0.4-0.3,0.9-0.3,1.3c0,0.3,0.1,0.6,0.2,0.9c0.1,0.3,0.3,0.5,0.5,0.8
			c0.3,0.2,0.6,0.4,0.9,0.5c0.2,0.1,0.7,0.2,1.5,0.3c0.4,0.1,0.8,0.2,1.1,0.4c0.2,0.1,0.4,0.3,0.5,0.5c0.1,0.2,0.2,0.5,0.1,0.7
			c0,0.3-0.1,0.6-0.2,0.9c-0.2,0.3-0.4,0.5-0.7,0.6c-0.3,0.1-0.7,0.2-1.1,0.2c-0.4,0-0.9-0.1-1.3-0.3c-0.3-0.1-0.6-0.4-0.8-0.7
			c-0.1-0.4-0.1-0.8-0.1-1.1h-0.5c0,0.7,0,1.5-0.2,2.2c0.4,0.2,0.9,0.4,1.3,0.5c0.5,0.1,0.9,0.2,1.4,0.2c0.6,0,1.2-0.1,1.8-0.3
			c0.3-0.1,0.7-0.3,0.9-0.6c0.3-0.2,0.5-0.5,0.7-0.9c0.2-0.4,0.4-0.9,0.3-1.4c0-0.3,0-0.6-0.1-0.8c-0.1-0.2-0.2-0.4-0.3-0.6
			c-0.1-0.2-0.3-0.3-0.5-0.4c-0.3-0.1-0.5-0.3-0.8-0.3l-0.9-0.2l-1-0.2c-0.3-0.1-0.5-0.2-0.7-0.3c-0.2-0.1-0.3-0.2-0.4-0.4
			c-0.1-0.2-0.1-0.4-0.1-0.7c0-0.4,0.2-0.7,0.5-1c0.4-0.3,0.9-0.5,1.3-0.4c0.4,0,0.7,0.1,1.1,0.2c0.3,0.1,0.5,0.3,0.7,0.5
			c0,0.3,0.1,0.7,0.1,1h0.5C140.1,58.5,140.1,58.2,140.1,57.9L140.1,57.9z M145.7,56.7h-1.8v0.5c0.3,0,0.5,0,0.8,0
			c0.1,0,0.1,0,0.1,0.1c0,0,0.1,0.1,0.1,0.1c0,0.3,0.1,0.7,0.1,1v4.3c0,0.4,0,0.9-0.1,1.4v0.6c0,0,0,0.1-0.1,0.1
			c-0.1,0-0.1,0.1-0.2,0.1h-0.8v0.6h4V65c-0.3,0-0.5,0-0.8,0c-0.1,0-0.1,0-0.2-0.1c0,0-0.1-0.1-0.1-0.1c-0.1-0.3-0.1-0.6-0.1-0.9
			v-3.8v-1.7v-0.6c0-0.1,0-0.3,0.1-0.4c0,0,0-0.1,0.1-0.1c0.1,0,0.1-0.1,0.2-0.1c0.3,0,0.5,0,0.8,0v-0.6L145.7,56.7L145.7,56.7z
			 M154.5,65.5c0.6,0,1.3,0,2.1,0.1V65c-0.3,0-0.6,0-0.9-0.1c-0.1,0-0.2-0.1-0.2-0.2c-0.1-0.5-0.1-1.1-0.1-1.6v-3.8v-1.7h0.9
			c0.5,0,0.9,0,1.3,0c0.1,0,0.1,0,0.2,0c0,0.1,0.1,0.2,0.1,0.3c0,0.3,0.1,0.6,0.1,0.9h0.5v-1.4c0-0.2,0-0.5,0.1-0.7l-0.1-0.1h-8
			l-0.1,0.1c0,0.2,0,0.4,0.1,0.6s0,0.7,0,1.5h0.5c0-0.3,0-0.7,0.1-1c0-0.1,0-0.2,0.1-0.2c0.1,0,0.2-0.1,0.2,0h2.1V63
			c0,0.5,0,1.1-0.1,1.6c0,0.1-0.1,0.2-0.2,0.3c-0.3,0.1-0.6,0.1-0.9,0.1v0.5C153.2,65.5,153.9,65.5,154.5,65.5L154.5,65.5z
			 M164.9,59.1c-0.3-0.5-0.6-1.1-0.9-1.6c-0.1-0.2-0.3-0.4-0.5-0.6c-0.2-0.2-0.4-0.3-0.6-0.4l-0.7,0.2l-1.4,0.3v0.6
			c0.2,0,0.4,0,0.6,0c0.2,0.1,0.3,0.3,0.4,0.4c0.4,0.4,0.7,0.9,1,1.4c0.5,0.7,0.9,1.4,1.3,2.2c0.1,0.2,0.2,0.4,0.2,0.6v2.4
			c0,0.1,0,0.3-0.1,0.4c0,0.1-0.1,0.1-0.2,0.1c-0.3,0-0.6,0.1-0.9,0.1v0.6h4.1V65c-0.3,0-0.6,0-0.8-0.1c-0.1,0-0.1-0.1-0.2-0.1
			c-0.1-0.1-0.1-0.3-0.1-0.4c0-0.4,0-0.8,0-1.2v-1.1c0-0.2,0-0.3,0-0.5c0-0.2,0.1-0.3,0.2-0.5c0.1-0.3,0.5-0.9,1.1-1.8
			s1.2-1.7,1.7-2.4v-0.3h-1c-0.1,0.1-0.2,0.4-0.4,0.8l-1.2,2.1l-0.8,1.3C165.8,60.6,165.5,60.1,164.9,59.1L164.9,59.1z"/>
		<path class="st0" d="M43.2,84.8v-8.7h8v-5.7h-8v-8.1H52v3.1h5.8v-8.8H34.6v5.7h2.2v22.5h-2.2v5.7h10.7v-5.7L43.2,84.8z M31.6,77.8
			V62.4h2.1v-5.7H23v5.7h2.1v13.5c0,5.7-0.6,8.4-4.7,8.4s-4.7-2.8-4.7-8.4V62.4h2.1v-5.7H7v5.7h2.1v15.4c0,3.4,0,6.1,1.6,8.6
			c1.8,2.8,5,4.6,9.7,4.6C28.7,90.9,31.6,86.6,31.6,77.8z"/>
	</g>
</g>
</svg>
